<svg xmlns="http://www.w3.org/2000/svg" width="16" height="16" viewBox="0 0 16 16" fill="none">
  <path d="M15.328 12.9599L15.36 3.53593V3.47193C15.328 3.21593 15.12 3.02393 14.864 3.02393H1.20005C0.992049 3.07193 0.832049 3.23193 0.800049 3.43993V12.9439C0.800049 12.9439 0.800049 12.9439 0.800049 12.9759C0.816049 13.2479 1.02405 13.4559 1.29605 13.4719H14.816C15.056 13.4559 15.264 13.2799 15.312 13.0559V13.0079C15.312 13.0079 15.328 12.9759 15.328 12.9599ZM14.192 12.7679H1.93605L5.40805 7.87193L7.92005 10.1759C8.00005 10.2559 8.12805 10.2559 8.22405 10.1759L10.768 7.88793L14.192 12.7679ZM4.96005 7.39193L1.47205 12.1439L1.44005 4.15993L4.96005 7.39193ZM14.688 4.15993L14.624 12.1599L11.152 7.39193L14.688 4.15993ZM14.096 3.69593L8.06405 9.21593L2.03205 3.69593H14.096Z" fill="#213629"/>
</svg>