<svg xmlns="http://www.w3.org/2000/svg" width="32" height="32" viewBox="0 0 32 32" fill="none">
  <path d="M3.71201 7.10404C3.00801 7.10404 2.43201 7.68004 2.43201 8.38404C2.43201 9.08804 3.00801 9.66404 3.71201 9.66404H28.416C28.768 9.66404 29.088 9.53604 29.344 9.28004C29.6 9.02404 29.728 8.70404 29.728 8.35204C29.728 8.00004 29.6 7.68004 29.344 7.42404C29.088 7.16804 28.768 7.04004 28.416 7.04004L3.71201 7.10404Z" fill="black"/>
  <path d="M3.87204 15.0718C3.16804 15.0718 2.59204 15.6478 2.59204 16.3518C2.59204 17.0558 3.16804 17.6318 3.87204 17.6318H28.576C28.928 17.6318 29.248 17.5038 29.504 17.2478C29.76 16.9918 29.888 16.6718 29.888 16.3198C29.888 15.9678 29.76 15.6478 29.504 15.3918C29.248 15.1358 28.928 15.0078 28.576 15.0078L3.87204 15.0718Z" fill="black"/>
  <path d="M3.87204 23.2642C3.16804 23.2642 2.59204 23.8402 2.59204 24.5442C2.59204 25.2482 3.16804 25.8242 3.87204 25.8242H28.576C28.928 25.8242 29.248 25.6962 29.504 25.4402C29.76 25.1842 29.888 24.8642 29.888 24.5122C29.888 24.1602 29.76 23.8402 29.504 23.5842C29.248 23.3282 28.928 23.2002 28.576 23.2002H3.87204V23.2642Z" fill="black"/>
</svg>