<svg xmlns="http://www.w3.org/2000/svg" width="32" height="32" viewBox="0 0 32 32" fill="none">
  <path d="M17.8452 15.9978L26.281 7.56195C26.7772 7.06572 26.8127 6.21505 26.281 5.71883C25.7848 5.2226 24.9341 5.18716 24.4379 5.71883L15.9666 14.1192L7.56626 5.71883C7.07004 5.2226 6.21937 5.2226 5.72314 5.71883C5.22692 6.21505 5.22692 7.06572 5.72314 7.56195L14.159 15.9978L5.72314 24.3981C5.47503 24.6462 5.33325 24.9652 5.33325 25.3197C5.33325 25.6741 5.47503 25.9931 5.72314 26.2413C5.97125 26.4894 6.29026 26.6311 6.6447 26.6311C6.99915 26.6311 7.31815 26.4894 7.56626 26.2413L15.9666 17.8054L24.4024 26.2413C24.6506 26.4894 24.9696 26.6311 25.324 26.6311C25.6785 26.6311 25.9975 26.4894 26.2456 26.2413C26.4937 25.9931 26.6355 25.6741 26.6355 25.3197C26.6355 24.9652 26.4937 24.6462 26.2456 24.3981L17.8452 15.9978Z" fill="#213629"/>
</svg>