<svg xmlns="http://www.w3.org/2000/svg" xmlns:xlink="http://www.w3.org/1999/xlink" viewBox="0 0 49 49"><defs><style>.cls-1,.cls-5{fill:none;}.cls-1,.cls-4,.cls-5{stroke:#fff;stroke-miterlimit:10;}.cls-1,.cls-4{stroke-width:0.25px;}.cls-2{fill:#fff;}.cls-3{clip-path:url(#clip-path);}.cls-4,.cls-6{fill:#1e1d19;}.cls-5{stroke-width:0.45px;}</style><clipPath id="clip-path"><ellipse class="cls-1" cx="24.57" cy="24.5" rx="23.93" ry="24"/></clipPath></defs><g id="Aquarium"><g id="Aquarium-2" data-name="Aquarium"><ellipse class="cls-2" cx="24.57" cy="24.5" rx="23.93" ry="24"/><g class="cls-3"><path class="cls-4" d="M37.64,27s-1.31-2.82-2.22-3.12c0,0,.84-.44.61-.9a2.11,2.11,0,0,0-2-1.37c-1.29,0-3.13-1.48-4.2-2.06s-5.79-3.4-8.45-3.87-2.8-2.42-2.8-2.42l-.49,1.15L17,13.29l-.33.9-1.26-.43-.29.54-2-.69.51,1.27-2.13-.33v.89l-1.84.34v.73s-1.12-.33-1.12-.18.15.9.15.9S7.31,15.71,7,16s-.21,4-1.12,4.64S4,24.88,2.88,25.12.66,24.28,0,23.91s-2.22,2.64-3.82,5.35C-4.85,31-6.25,31.79-6.25,33.14c.44,3.4,2.56,5.39,3.61,5S2.41,33,3.27,32.69s1.27,0,1.27,0-.91.08-.65,2.25.86,5,2.23,4.88,1.45-.36,1.45-.36,2.88,1.08,4.39,0a20.69,20.69,0,0,1,3.43-1.9,11.41,11.41,0,0,0,2.74.41s-2.42.29-2.78,1.67-1.47,4-.32,3.9,5.37-4.08,5.37-4.08,1.36,4.59,2.32,3.69,1.59-5,1.59-5,10.81-4,12.66-6.54S37.64,27,37.64,27Z"/><g id="olAzwP.tif"><path class="cls-4" d="M34.87,10.25a5.29,5.29,0,0,1-.8-.09c-.45-.11-.89-.28-1.33-.41a8,8,0,0,0-3.67.16,4.52,4.52,0,0,0-2.4,1.31.74.74,0,0,0-.17.45.39.39,0,0,0,.19.3c.06,0,.2,0,.29-.09a.57.57,0,0,0,.2-.21.85.85,0,0,1,.7-.66,7.39,7.39,0,0,1,1.33,0c.84.07,1.06.82,1.46,1.37a1.2,1.2,0,0,0,.42.39.54.54,0,0,0,.44-.1.46.46,0,0,0-.06-.4,9.58,9.58,0,0,0-.76-.67c-.3-.26-.3-.47.07-.58a1.33,1.33,0,0,1,.86,0c1.2.57,2.53.65,3.75,1.11a7.58,7.58,0,0,1,.84.45l0,.12-.44.17a11.17,11.17,0,0,1-3.49.46,2.41,2.41,0,0,0-.68.2,1.82,1.82,0,0,0,.65.38c.53.06,1.07,0,1.6.05a7.57,7.57,0,0,1,1.47.32c.51.17.62.14.85-.32a.8.8,0,0,1,.43-.42,2.14,2.14,0,0,1,2,.29c.21.16.59.39.7.31.31-.22,0-.49-.12-.73a1,1,0,0,1,.7-1.44l-.38.49a.77.77,0,0,0,0,1,2.89,2.89,0,0,1,.36.8.51.51,0,0,1-.13.44.45.45,0,0,1-.42,0,6.89,6.89,0,0,1-1-.75A1.33,1.33,0,0,0,37,13.72c-.16,0-.31.31-.37.5-.19.58-.32.68-.92.57a1.31,1.31,0,0,1-.56-.17A3.46,3.46,0,0,0,33,14.23a3.46,3.46,0,0,1-.79-.06A18.88,18.88,0,0,1,27.82,13c-.39-.2-.78-.37-1.17-.57a.76.76,0,0,1-.17-1.34,5.11,5.11,0,0,1,1.34-.93,9.08,9.08,0,0,1,3.95-.77,5.19,5.19,0,0,1,1.39.32C33.74,9.84,34.3,10.05,34.87,10.25Zm-6.52,1.67c.16-.21.33-.33.31-.41a.44.44,0,0,0-.3-.26c-.07,0-.25.14-.25.23S28.22,11.7,28.35,11.92Z"/><path class="cls-4" d="M34.87,10.25l.29,0c.43.37.86.74,1.28,1.12.17.15.32.33.49.47a.89.89,0,0,0,1.14,0l1.61-.71a1.42,1.42,0,0,1,.34-.15c.14,0,.35,0,.41.09a.45.45,0,0,1-.06.41,2.69,2.69,0,0,1-.45.44,1,1,0,0,0-.7,1.44c.1.24.43.51.12.73-.11.08-.49-.15-.7-.31a2.14,2.14,0,0,0-2-.29.8.8,0,0,0-.43.42c-.23.46-.34.49-.85.32A7.57,7.57,0,0,0,33.85,14c-.53-.05-1.07,0-1.6-.05a1.82,1.82,0,0,1-.65-.38,2.41,2.41,0,0,1,.68-.2,11.17,11.17,0,0,0,3.49-.46l.44-.17,0-.12a7.58,7.58,0,0,0-.84-.45c-1.22-.46-2.55-.54-3.75-1.11a1.33,1.33,0,0,0-.86,0c-.37.11-.37.32-.07.58a9.58,9.58,0,0,1,.76.67.46.46,0,0,1,.06.4.54.54,0,0,1-.44.1,1.2,1.2,0,0,1-.42-.39c-.4-.55-.62-1.3-1.46-1.37a7.39,7.39,0,0,0-1.33,0,.85.85,0,0,0-.7.66.57.57,0,0,1-.2.21c-.09.06-.23.12-.29.09a.39.39,0,0,1-.19-.3.74.74,0,0,1,.17-.45,4.52,4.52,0,0,1,2.4-1.31,8,8,0,0,1,3.67-.16c.44.13.88.3,1.33.41A5.29,5.29,0,0,0,34.87,10.25Z"/></g><path class="cls-5" d="M37.64,27a3.89,3.89,0,0,0-4.18-1.72c-2.81.65-6.43,5-6.43,5S33.31,26.13,37.64,27Z"/><circle class="cls-5" cx="26.81" cy="23.48" r="0.97"/><path class="cls-5" d="M11.82,29.62c-3-1.29-6.32-2.22-6.65.12a17.39,17.39,0,0,0,0,6.41"/><path class="cls-5" d="M22.72,35.41s-10.39-4.27-7.91-9.62,1.7-3.68,1.7-3.68"/><path class="cls-1" d="M37.64,27s-1.31-2.82-2.22-3.12c0,0,.84-.44.61-.9a2.11,2.11,0,0,0-2-1.37c-1.29,0-3.13-1.48-4.2-2.06s-5.79-3.4-8.45-3.87-2.8-2.42-2.8-2.42l-.49,1.15L17,13.29l-.33.9-1.26-.43-.29.54-2-.69.51,1.27-2.13-.33v.89l-1.84.34v.73s-1.12-.33-1.12-.18.15.9.15.9S7.31,15.71,7,16s-.21,4-1.12,4.64S4,24.88,2.88,25.12.66,24.28,0,23.91s-2.22,2.64-3.82,5.35C-4.85,31-6.25,31.79-6.25,33.14c.44,3.4,2.56,5.39,3.61,5S2.41,33,3.27,32.69s1.27,0,1.27,0-.91.08-.65,2.25.86,5,2.23,4.88,1.45-.36,1.45-.36,2.88,1.08,4.39,0a20.69,20.69,0,0,1,3.43-1.9,11.41,11.41,0,0,0,2.74.41s-2.42.29-2.78,1.67-1.47,4-.32,3.9,5.37-4.08,5.37-4.08,1.36,4.59,2.32,3.69,1.59-5,1.59-5,10.81-4,12.66-6.54S37.64,27,37.64,27Z"/></g><ellipse class="cls-1" cx="24.57" cy="24.5" rx="23.93" ry="24"/></g><path class="cls-6" d="M24.43,1.5A23,23,0,1,1,1.5,24.5a23,23,0,0,1,22.93-23m0-1a24,24,0,1,0,23.92,24A24,24,0,0,0,24.43.5Z"/></g></svg>