<svg xmlns="http://www.w3.org/2000/svg" xmlns:xlink="http://www.w3.org/1999/xlink" viewBox="0 0 49 49"><defs><style>.cls-1{fill:none;}.cls-2{clip-path:url(#clip-path);}.cls-10,.cls-11,.cls-3,.cls-5,.cls-6,.cls-7,.cls-8,.cls-9{fill:#1e1d19;}.cls-4{clip-path:url(#clip-path-2);}.cls-10,.cls-11,.cls-5,.cls-6,.cls-7,.cls-8,.cls-9{stroke:#1e1d19;stroke-miterlimit:10;}.cls-11,.cls-5,.cls-6,.cls-7,.cls-9{stroke-linecap:round;}.cls-10,.cls-6{stroke-width:0.64px;}.cls-7{stroke-width:2px;}.cls-9{stroke-width:0.48px;}.cls-11{stroke-width:0.97px;}</style><clipPath id="clip-path"><circle class="cls-1" cx="-51.5" cy="24.5" r="23.8"/></clipPath><clipPath id="clip-path-2"><circle class="cls-1" cx="24.5" cy="24.5" r="24"/></clipPath></defs><g id="Gunsmith"><g class="cls-2"><path class="cls-3" d="M-83,24.72s15.94.76,17.54.76a4.81,4.81,0,0,1,3.6,1.66c.69.84,1.8,1.74,4.71.77S-47,24.65-44.69,24a10.83,10.83,0,0,1,4-.63c1,0,.08,1.32.63,1.39a2.87,2.87,0,0,0,1.73-.07c.41-.28.07-1.32.69-1.32s5.2.07,6.17,0,.48-.62,2.56-.55L4.32,24v6.93H-11.85l-.61-1.74-21.28-.27-1.8,3s-9.77-.56-10.81,0a7,7,0,0,1-3.19.76c-1.25.07-5.27,1-6.86,6.79s-9.29-.34-9.29-.34,1.11-2-.21-2.71-18.85,5.89-18.85,5.89l.35-17.6Z"/></g></g><g id="Archery_Services" data-name="Archery Services"><g class="cls-4"><path class="cls-5" d="M41.68,16.39c1.63,2.23,2.49,6.32.52,7.76s-6-.3-7.67-2.53A4.74,4.74,0,0,1,35.16,15,4.74,4.74,0,0,1,41.68,16.39Z"/><path class="cls-6" d="M40.43,18.23c.77,1.06,1.18,3,.24,3.68s-2.86-.14-3.63-1.2a2.11,2.11,0,1,1,3.39-2.48Z"/><path class="cls-7" d="M12.61,28.9c7.57-7.16,20.19-8.22,20.19-8.22L39.34,20"/><path class="cls-8" d="M14.68,30.32c1.22-2,5.64-4,5.64-4s7,6,8.3,9.77,1.05,16,1.05,16l-4,.72s.62-7.3.16-9.87-2.85-5-5-6.86S14.44,31.91,14.68,30.32Z"/><line class="cls-9" x1="33.53" y1="19.25" x2="37.87" y2="72.73"/><line class="cls-9" x1="41.21" y1="20.63" x2="34.23" y2="72.7"/><line class="cls-9" x1="43.33" y1="21.04" x2="42.71" y2="79.58"/><polygon class="cls-8" points="20.5 43.93 23.35 44.01 23.43 50.04 20.62 49.9 20.5 43.93"/><polyline class="cls-10" points="22.56 45.39 27.27 44.86 27.07 48.2 23.41 48.44"/><line class="cls-11" x1="16.25" y1="30.46" x2="12.74" y2="27.23"/><line class="cls-11" x1="19.96" y1="27.76" x2="16.45" y2="24.54"/><g id="cKswzw.tif"><path class="cls-3" d="M-22.17,41.56c.48-.52,1-1,1.43-1.55a10.22,10.22,0,0,0,1-1.71,13.23,13.23,0,0,1,6.06-5.84c2.67-1.41,5.38-2.73,8.08-4.09,3-1.51,6-3,9.05-4.51C5.34,22.92,7.18,21.93,9,21a10.29,10.29,0,0,1,7.38-1c3.7,1,6.57-1.26,8.17-3.57.15-.21.11-.55.16-.83a3.17,3.17,0,0,0-.81,0c-1.15.27-2.3.54-3.43.87a2.08,2.08,0,0,1-2.42-.8,4.46,4.46,0,0,1-.84-3.77A2.21,2.21,0,0,1,19.17,10c1.21-.22,2.43-.41,3.64-.66a2.72,2.72,0,0,0,.72-.4c-.17-.25-.29-.62-.53-.74a12.39,12.39,0,0,0-5.63-1.59,3.53,3.53,0,0,0-3,1.58A12.23,12.23,0,0,0,13.29,9.9a13.66,13.66,0,0,1-6.58,6.33Q-4.71,22-16.14,27.73a9.28,9.28,0,0,1-6.68.76c-3.9-1-6.77,1.29-8.29,3.45a2.37,2.37,0,0,0-.18.95,2.89,2.89,0,0,0,.83,0c1.17-.27,2.34-.56,3.51-.89a2,2,0,0,1,2,.55A4.45,4.45,0,0,1-24,37.29a2.23,2.23,0,0,1-1.77,1.19c-1.21.23-2.43.42-3.63.65a2.76,2.76,0,0,0-.67.37c.13.23.2.56.4.66,2,1.06,4.15,2,6.54,1.6a2.17,2.17,0,0,0,.5-.13c.14,0,.28-.11.41-.16Z"/></g></g><path class="cls-3" d="M24.5,1.5a23,23,0,1,1-23,23,23,23,0,0,1,23-23m0-1a24,24,0,1,0,24,24,24,24,0,0,0-24-24Z"/></g></svg>