<svg xmlns="http://www.w3.org/2000/svg" xmlns:xlink="http://www.w3.org/1999/xlink" viewBox="0 0 49 49"><defs><style>.cls-1{fill:none;}.cls-2{clip-path:url(#clip-path);}.cls-3{fill:#1e1d19;}.cls-4{fill:#fff;}</style><clipPath id="clip-path"><circle class="cls-1" cx="24.5" cy="24.5" r="23.8"/></clipPath></defs><g id="Bait_Shop" data-name="Bait Shop"><circle class="cls-1" cx="24.5" cy="24.5" r="23.8"/><g class="cls-2"><g id="pqX6n2.tif"><path class="cls-3" d="M35.47,50.49A1.62,1.62,0,0,1,34.36,50a15.61,15.61,0,0,1-2-4l-.2-.52c-.9-4.16-.16-7.37,2.21-9.58a10.3,10.3,0,0,1,2.76-1.76,2.24,2.24,0,0,0,1.08-.83,2.5,2.5,0,0,0,0-2.85,2.7,2.7,0,0,0-2.35-1.31,3.27,3.27,0,0,0-.75.09,2.9,2.9,0,0,0-1.73.95l-.82.69A13.94,13.94,0,0,1,29.38,33l-.89.4a.94.94,0,0,1-.61.63,9.93,9.93,0,0,1-3.26.59h0a7.78,7.78,0,0,1-1.53-.15,1,1,0,0,1-.8-.78L22,33.62a9.76,9.76,0,0,1-2-.81,9.14,9.14,0,0,1-2.06-1.46,3.07,3.07,0,0,1-.52-.77.53.53,0,0,1,0-.5.59.59,0,0,1,.44-.29,3.71,3.71,0,0,1,.77-.08,6.67,6.67,0,0,1,.89.07,16.55,16.55,0,0,1,3.06.78l.26.09v.14a1,1,0,0,1,.79-.4h.18a6.93,6.93,0,0,0,1.16.12,3.16,3.16,0,0,0,.64-.06c.48-.11,1-.26,1.37-.39a1.13,1.13,0,0,1,.36-.06.89.89,0,0,1,.73.35l.2-.1a10.44,10.44,0,0,0,2.37-1.68,9.54,9.54,0,0,1,3-2.07,6.47,6.47,0,0,1,2.24-.42,5.75,5.75,0,0,1,2.68.67l.14,0,.7.45.3.26.51.47a4.94,4.94,0,0,1,1.27,2.47,5.33,5.33,0,0,1-.69,4.38,5.27,5.27,0,0,1-2.42,2,6.07,6.07,0,0,0-1.74,1C34.37,39.2,35,42.26,35.36,44.1c0,.21.08.4.11.57a10.4,10.4,0,0,0,1.27,2.84c.55,1,.77,1.4.66,1.7l0,.14-.19.11a1.68,1.68,0,0,0-.33.28A2.12,2.12,0,0,1,35.47,50.49Z"/><path class="cls-4" d="M35.85,26.41a5.64,5.64,0,0,1,2.54.63.19.19,0,0,0,.1,0l.7.46c.26.23.52.46.77.7a4.57,4.57,0,0,1,1.18,2.31,5,5,0,0,1-.65,4.13,4.91,4.91,0,0,1-2.28,1.84,6.51,6.51,0,0,0-1.82,1.1c-2.64,1.58-1.55,5.4-1.24,7.12s2.33,4.26,1.9,4.43-.87,1-1.59,1a1.23,1.23,0,0,1-.87-.45c-.65-.66-1.45-2.81-2.1-4.43-.4-1.86-1.13-6.17,2.13-9.23a9.78,9.78,0,0,1,2.68-1.69,2.57,2.57,0,0,0,1.22-1,2.84,2.84,0,0,0,0-3.18,3,3,0,0,0-2.63-1.47,3.34,3.34,0,0,0-.82.1c-1,.2-1.16.42-2.18,1.27a16.33,16.33,0,0,1-3.6,2.6l-.54.24-.35-2.42a11.11,11.11,0,0,0,2.45-1.73,9.15,9.15,0,0,1,2.92-2,6.16,6.16,0,0,1,2.12-.4M18.59,30a6,6,0,0,1,.84.07,16.39,16.39,0,0,1,3,.76l0,0h0c-.12.81-.24,1.61-.37,2.44a9.74,9.74,0,0,1-1.94-.79,9,9,0,0,1-2-1.41,2.77,2.77,0,0,1-.46-.69c-.1-.2,0-.28.19-.33a3.33,3.33,0,0,1,.7-.07m8.7.3a.57.57,0,0,1,.59.52c.12.74.22,1.49.32,2.23a.61.61,0,0,1-.43.67,9.78,9.78,0,0,1-3.15.57,7.46,7.46,0,0,1-1.47-.14.65.65,0,0,1-.55-.75c.1-.68.19-1.35.3-2A2.72,2.72,0,0,1,23,31a.72.72,0,0,1,.57-.31h.13a8.27,8.27,0,0,0,1.21.12,3.42,3.42,0,0,0,.71-.07,11.7,11.7,0,0,0,1.4-.4.82.82,0,0,1,.26,0m8.56-4.56h0a6.61,6.61,0,0,0-2.35.45,9.58,9.58,0,0,0-3.14,2.14A10.83,10.83,0,0,1,28.09,30a1.24,1.24,0,0,0-.8-.28h0a1.24,1.24,0,0,0-.46.08,12.82,12.82,0,0,1-1.34.37,2.49,2.49,0,0,1-.57.06,7.84,7.84,0,0,1-1.12-.11.82.82,0,0,0-.22,0,1.24,1.24,0,0,0-.76.25l-.18-.06a16.76,16.76,0,0,0-3.12-.8,8.53,8.53,0,0,0-.93-.07,3.8,3.8,0,0,0-.84.09.81.81,0,0,0-.61,1.25,3.14,3.14,0,0,0,.58.85,9.77,9.77,0,0,0,2.13,1.51,10,10,0,0,0,2.07.84l.1,0a1.3,1.3,0,0,0,1,.85,8.4,8.4,0,0,0,1.59.15A10.32,10.32,0,0,0,28,34.35a1.24,1.24,0,0,0,.76-.69l.23-.1.19-.09.36-.16a14.06,14.06,0,0,0,3.23-2.26l.51-.42.31-.27a2.74,2.74,0,0,1,1.58-.88,3,3,0,0,1,.7-.08,2.38,2.38,0,0,1,2.08,1.16,2.2,2.2,0,0,1,0,2.51,1.93,1.93,0,0,1-.93.7,11.12,11.12,0,0,0-2.83,1.79c-2.48,2.33-3.26,5.64-2.35,9.86v.06l0,.05.21.52a14.53,14.53,0,0,0,2,4.12,1.9,1.9,0,0,0,1.33.64A2.37,2.37,0,0,0,37.05,50a2.13,2.13,0,0,1,.26-.23.68.68,0,0,0,.39-.42c.17-.45-.1-.93-.68-2a10.82,10.82,0,0,1-1.24-2.73c0-.18-.07-.38-.11-.59-.35-1.75-.94-4.68,1-5.87l.05,0,0,0a5.81,5.81,0,0,1,1.65-1,5.58,5.58,0,0,0,3.3-6.71,5.3,5.3,0,0,0-1.36-2.63c-.17-.17-.35-.33-.54-.49l-.24-.22,0,0-.05,0-.35-.23-.35-.22-.08-.06-.1,0h0a6.16,6.16,0,0,0-2.78-.68Z"/></g><path class="cls-3" d="M5.05,31.29a.94.94,0,0,1-.71-.23c-1-1,1.19-6.36,3.11-9.44a19.36,19.36,0,0,1,4-4.62c0-.7.21-3.65.88-4.7a1.44,1.44,0,0,1,1.31-.55,9,9,0,0,1,2.94.73,70.25,70.25,0,0,0,5-5A6.57,6.57,0,0,0,22.45,5c.25-1.13.45-2,1.15-2a.83.83,0,0,1,.44.13,2.6,2.6,0,0,1,1.14,1.52,1.4,1.4,0,0,0,.6.91,4.07,4.07,0,0,0,1.28.35,4.37,4.37,0,0,1,2,.67.76.76,0,0,1,.38.71c-.08.69-1.2,1.18-3.16,2l-.77.32c-1.77.74-3.48,3-3.9,3.64a4.42,4.42,0,0,1,.33,3c-.49,1.2-2.5,1.48-3,1.53a49.19,49.19,0,0,0-2.74,4.95C13.47,28,7,31.29,5.05,31.29Z"/><path class="cls-4" d="M23.6,3.32a.54.54,0,0,1,.28.09c1.19.67.81,1.92,1.74,2.43s2.19.26,3.22,1S27.51,8.39,25.36,9.3s-4.15,3.9-4.15,3.9.87,1.76.4,2.9-2.78,1.35-2.78,1.35,0,0,0,0-.47.44-2.91,5.13C13.23,27.73,7,31,5.05,31a.67.67,0,0,1-.48-.13c-.76-.76,1-5.6,3.15-9a18.67,18.67,0,0,1,4-4.63s.12-3.57.83-4.68a1.14,1.14,0,0,1,1-.42,9.38,9.38,0,0,1,3,.8s4-3.66,5.16-5.15.93-4.39,1.8-4.39m0-.64h0c-1,0-1.2,1.1-1.46,2.27a6.37,6.37,0,0,1-.84,2.36c-.95,1.2-3.85,3.92-4.8,4.8a8.82,8.82,0,0,0-2.87-.69,1.74,1.74,0,0,0-1.58.71c-.68,1.06-.87,3.77-.92,4.72a19.38,19.38,0,0,0-4,4.6C5.51,24.14,2.8,30,4.11,31.29a1.26,1.26,0,0,0,.94.32c2.1,0,8.6-3.31,11.43-8.76,1.74-3.34,2.4-4.43,2.64-4.79.68-.09,2.57-.45,3.09-1.71a4.45,4.45,0,0,0-.27-3.08A10.85,10.85,0,0,1,25.6,9.89l.77-.32c2.14-.87,3.26-1.37,3.36-2.24a1.09,1.09,0,0,0-.51-1,4.73,4.73,0,0,0-2.11-.73,3.83,3.83,0,0,1-1.18-.31c-.22-.12-.31-.34-.45-.74A2.89,2.89,0,0,0,24.2,2.85a1.24,1.24,0,0,0-.6-.17Z"/><path class="cls-3" d="M38.87,8.77c-1.12-.36-1.78,1.49-1.79,2.27a6.94,6.94,0,0,1,.08,1.28,15.19,15.19,0,0,1-.57,1.85c-.38,1.17-.77,2.33-1.17,3.49A8.21,8.21,0,0,1,33.74,21a5.16,5.16,0,0,1-5,1.39A4.48,4.48,0,0,1,26,20.27c-.57-1.07-.15-1.94.34-2.94.2.25.57.31.77.55-.34-2.12,1.17-4,1.1-4.09-1.46,1.6-4.29,3.7-3.53,6.24.92,3.1,4.78,4.24,7.56,3.25,3.28-1.17,4-4.44,4.94-7.39.25-.77.52-1.52.76-2.29a3.83,3.83,0,0,1,.54-1.45,3.21,3.21,0,0,0,1-1.75C39.52,9.88,39.5,9,38.87,8.77Zm-.34,1.94c-.3,1-.83.79-.55-.17.06-.21.28-1,.56-1S38.56,10.61,38.53,10.71Z"/></g><path class="cls-3" d="M24.5,1.5a23,23,0,1,1-23,23,23,23,0,0,1,23-23m0-1a24,24,0,1,0,24,24,24,24,0,0,0-24-24Z"/></g></svg>