<svg xmlns="http://www.w3.org/2000/svg" xmlns:xlink="http://www.w3.org/1999/xlink" viewBox="0 0 49 49"><defs><style>.cls-1{fill:none;}.cls-2{clip-path:url(#clip-path);}.cls-3{fill:#1e1d19;}.cls-4{fill:#fff;}</style><clipPath id="clip-path"><circle class="cls-1" cx="100.7" cy="24.23" r="23.8"/></clipPath></defs><g id="Boat_Service" data-name="Boat Service"><g class="cls-2"><g id="cKswzw.tif"><path class="cls-3" d="M53.8,40.94a19,19,0,0,0,1.43-1.55,10.13,10.13,0,0,0,1-1.7,13.18,13.18,0,0,1,6.06-5.84c2.67-1.41,5.38-2.74,8.08-4.09,3-1.51,6-3,9-4.51,1.87-.94,3.71-1.93,5.57-2.86a10.24,10.24,0,0,1,7.38-1c3.7,1,6.57-1.26,8.17-3.56a2.36,2.36,0,0,0,.16-.83,2.78,2.78,0,0,0-.81,0c-1.15.26-2.3.54-3.43.87A2.09,2.09,0,0,1,94.06,15a4.44,4.44,0,0,1-.84-3.76,2.21,2.21,0,0,1,1.92-1.87c1.21-.23,2.43-.42,3.64-.66a2.72,2.72,0,0,0,.72-.4c-.17-.25-.29-.62-.53-.74A12.3,12.3,0,0,0,93.34,6a3.52,3.52,0,0,0-3,1.57,13.54,13.54,0,0,0-1,1.69,13.68,13.68,0,0,1-6.58,6.34Q71.26,21.38,59.83,27.11a9.25,9.25,0,0,1-6.69.77c-3.89-1.05-6.77,1.29-8.29,3.45a2.55,2.55,0,0,0-.17,1,3.84,3.84,0,0,0,.83,0c1.17-.28,2.34-.57,3.51-.89a1.94,1.94,0,0,1,2,.55,4.43,4.43,0,0,1,.87,4.74,2.18,2.18,0,0,1-1.76,1.18c-1.21.24-2.43.42-3.63.66a2.46,2.46,0,0,0-.67.37c.13.22.2.56.39.66,2,1.06,4.15,2,6.55,1.6a4.07,4.07,0,0,0,.5-.13,3.56,3.56,0,0,0,.41-.17Z"/></g></g></g><g id="Bargain_Cave" data-name="Bargain Cave"><circle class="cls-3" cx="24.5" cy="24.6" r="23.8"/><path class="cls-4" d="M29.07,28.17l-3.26-.1L23.34,29l-1.88-.2-1.19-.67H17.21a6.65,6.65,0,0,1,.83-2c.1-.17,1.51-.24,1.64-.41a6.16,6.16,0,0,1,1-1.07c.79-.63.67-.8,1.68-1a12.94,12.94,0,0,0,2.55-.72,2.86,2.86,0,0,1,2.69.43c.31.23.46.84.79,1.07a22.45,22.45,0,0,0,2.3,1.09c.81.48,1.73.48,2.35.84a6.61,6.61,0,0,1,2,1.75l-4.26-.49Z"/><path class="cls-4" d="M24.5.6A23.81,23.81,0,0,0,1.22,29.36,8.29,8.29,0,0,0,5,28.07l1.2-1.35a7.2,7.2,0,0,1,1.47-1.56s0,0,0,0A.45.45,0,0,1,8,25.08s0,0,0,0h.69c-.09,0-.09-.07-.13-.11s0,0,0,0,.08.08.12,0a.66.66,0,0,1,0-.23.28.28,0,0,0,0-.18l0,0,.08.06s0-.08,0-.06,0-.06,0-.06,0-.07-.07-.1a0,0,0,0,1,0,0h0l.08.07a.12.12,0,0,0,0-.14.15.15,0,0,1,0-.07h0l.1.07c0-.07-.13-.13-.11-.25l.08.07V24l0,0,0,0-.08-.13.06,0,.06,0a.63.63,0,0,1-.05-.22h0l0,.06c.08,0,0-.1,0-.13s.07,0,.09-.06,0,0,0,0l0,0a0,0,0,0,1,0,0l.06.11s0,.08,0,.12v0l.09-.08v.07l0,0c0,.11,0,.17-.12.23l0,0,.09,0,0,0-.09.19h0l.07,0,0,.1h0v.07h.07c0,.08,0,.15-.09.21a.54.54,0,0,0-.09.12c.09,0,.14-.05.2-.1s0,.08,0,.11-.06,0-.09.07,0,.07.06.08l.05,0c0,.06,0,.08,0,.12h.05V25l.12,0s0,0,0,0a.22.22,0,0,1-.12.13l.1,0s.32,0,.78-.05c0,0,0,0,0,0L10.25,25c.06,0,.11-.07,0-.11s-.11,0-.07-.11l-.07,0a.57.57,0,0,1,.36,0c0-.06,0-.09-.06-.11a.6.6,0,0,1-.15-.09v0h.07l.09,0-.07,0h-.08l-.08-.06a.61.61,0,0,1,.1-.07h.16l0-.07c-.12.05-.16,0-.16,0l.13-.13c-.08,0,0-.08,0-.11s-.15-.05-.11-.15l-.07-.05h.09a.54.54,0,0,0,.18,0h-.05v0s.05,0,.07,0,.07,0,.1,0,.06,0,.06-.07,0-.08-.05-.08-.1-.07-.13-.12,0-.05,0-.05l.27,0c0-.05-.14,0-.09-.13l.08,0c-.14,0-.06-.09-.06-.15l.22,0a.46.46,0,0,0-.08-.13.76.76,0,0,0-.13-.07l.12-.06-.11-.06v0l.09,0H11s0,0,0-.07-.12,0-.14-.07l-.09,0v0l.25-.07c0-.09,0-.18,0-.25h0l.1.06s0-.07,0-.1l0-.06a.14.14,0,0,0,0,.06s0,0,0,0a.15.15,0,0,1,0,.2l.08.07s0,0,0,0h0c.08,0,.12.05.07.11s0,.1,0,.12l0,0-.09.06s0,.05,0,.05h.06l.08,0v0l-.08.12c.06,0,.09,0,.12-.05l0,0,.05,0-.11.12,0,0,.05.06.08,0,0,0,0,.07a.1.1,0,0,0,.07,0h.14c0,.18-.14.09-.24.07l.06.08h-.1c0,.06.05.07.16.07l0,.11c.1.05.19,0,.3,0l0,.14.09.11c-.15,0-.21.07-.2.17a.59.59,0,0,0,.35-.08l-.08.17c.1,0,.19,0,.26,0l-.15.08v0a.46.46,0,0,1,.07.07l-.1,0h-.19c0,.15.15.12.22.16s0,0,0,.05,0,.08-.07.09-.07,0-.09,0a.25.25,0,0,0,0,.09h0l.52-.13h.06l.17-.06a.09.09,0,0,0,0-.11.44.44,0,0,0,.3,0l-.1,0s-.11,0-.12,0,0,0,0,0l-.14.05,0-.09h-.06l.21-.05.2-.08h0l-.14,0-.07,0,0-.11c.1,0,.22,0,.31-.06v-.06c-.13.05-.16,0-.16-.05h-.06l.08,0L13,24l0,0a.05.05,0,0,0,0,0h-.11v-.09a.49.49,0,0,0,.38-.14l-.25,0c-.07,0-.1,0-.1-.08l-.06,0s.09,0,.13,0,.27-.05.29-.07,0-.07,0-.1H13v-.08l.17,0v-.14h0v-.07c-.12.1-.09-.08-.17-.08h.2V22.8h0c.08,0,0-.06,0-.07s.22.09.31.08a1,1,0,0,1-.09-.18c0,.05,0,.08-.08,0s-.07-.07-.11-.11c.15,0,.18-.1.2-.22l.06.07h0l0-.13h0v-.13h0v.27l.11-.06-.06.14.18.06,0,.1h0v.12l.09,0-.08.1.12.06-.08.1h.19l0,.09-.28,0v0l.49.07s0,0,0,0,0,.06-.09,0v0l.08,0-.06.1.19,0s0,0,0,0,0,.07-.08,0v.09l.1,0-.05.1-.06,0v0l-.09,0v0a.16.16,0,0,0,.15.07,7.41,7.41,0,0,0,.95-.72l.09-.1,1-.6a6.28,6.28,0,0,1,2.23-1.06c1.26-.29,1.84-1.55,2.32-1.64a12.13,12.13,0,0,1,1.94,0,6.5,6.5,0,0,0,3.77,0s1.74-.78,2.32,0a12,12,0,0,0,2.13,1.83,6.31,6.31,0,0,0,2.51.87h1a22.34,22.34,0,0,0,2,1.07c1.45.68,1.58.92,2.13,1a5.46,5.46,0,0,1,1.55.34,2.13,2.13,0,0,0,2.23.7c.31-.09.62-.19.93-.26h0l.35,0h.31l.37.13h0a33.52,33.52,0,0,0,4,.8c.05-.6.07-1.2.07-1.8A23.8,23.8,0,0,0,24.5.6Z"/><path class="cls-3" d="M24.5,1.5a23,23,0,1,1-23,23,23,23,0,0,1,23-23m0-1a24,24,0,1,0,24,24,24,24,0,0,0-24-24Z"/></g></svg>