<svg xmlns="http://www.w3.org/2000/svg" xmlns:xlink="http://www.w3.org/1999/xlink" viewBox="0 0 49 49"><defs><style>.cls-1{fill:none;}.cls-2{clip-path:url(#clip-path);}.cls-3,.cls-4,.cls-7,.cls-8{fill:#1e1d19;}.cls-3,.cls-6,.cls-7{stroke:#fff;}.cls-3,.cls-4,.cls-5,.cls-6{stroke-linecap:round;stroke-linejoin:round;}.cls-3,.cls-4,.cls-5{stroke-width:1.22px;}.cls-4,.cls-5{stroke:#1e1d19;}.cls-5,.cls-6,.cls-9{fill:#fff;}.cls-6{stroke-width:0.97px;}.cls-7{stroke-miterlimit:10;stroke-width:0.49px;}</style><clipPath id="clip-path"><circle class="cls-1" cx="24.7" cy="24.23" r="23.8"/></clipPath></defs><g id="Boat_Service" data-name="Boat Service"><circle class="cls-1" cx="24.7" cy="24.23" r="23.8"/><g class="cls-2"><path class="cls-3" d="M12.12,33.12S23,41.17,37.36,40.6s39.93-8.83,39.93-8.83L77,29.05,19.52,31.6Z"/><path class="cls-4" d="M12.12,32.36s10.84,8,25.24,7.48S77.29,31,77.29,31L77,28.29,19.52,30.84Z"/><path class="cls-5" d="M61.65,20S18.83,21.17,12.12,32.36c0,0,25,2.48,65.51-4.16Z"/><line class="cls-6" x1="29.06" y1="27.53" x2="29.06" y2="28.73"/><path class="cls-7" d="M31.28,20.66a12,12,0,0,0-1.86-.22,1.92,1.92,0,0,0-1.91,1.7c-.09,1-.27,2.65-.27,2.65s-1.35.27-1.3,1,.35,1.62,2.11,1.58,2.51.4,3.14,0,1.26-.86,1.26-1.53a17.7,17.7,0,0,1,.4-3.28A1.6,1.6,0,0,0,31.28,20.66Zm.21,4.68-3.06-.28v-.63l3.06.46Z"/><g id="cKswzw.tif"><path class="cls-8" d="M-22.2,40.94a19,19,0,0,0,1.43-1.55,10.13,10.13,0,0,0,1-1.7,13.18,13.18,0,0,1,6.06-5.84C-11,30.44-8.3,29.11-5.6,27.76c3-1.51,6-3,9-4.51,1.87-.94,3.71-1.93,5.57-2.86a10.24,10.24,0,0,1,7.38-1c3.7,1,6.57-1.26,8.17-3.56a2.36,2.36,0,0,0,.16-.83,2.78,2.78,0,0,0-.81,0c-1.15.26-2.3.54-3.43.87A2.09,2.09,0,0,1,18.06,15a4.44,4.44,0,0,1-.84-3.76,2.21,2.21,0,0,1,1.92-1.87c1.21-.23,2.43-.42,3.64-.66a2.72,2.72,0,0,0,.72-.4c-.17-.25-.29-.62-.53-.74A12.3,12.3,0,0,0,17.34,6a3.52,3.52,0,0,0-3,1.57,13.54,13.54,0,0,0-1.05,1.69,13.68,13.68,0,0,1-6.58,6.34Q-4.73,21.38-16.17,27.11a9.25,9.25,0,0,1-6.69.77c-3.89-1.05-6.77,1.29-8.29,3.45a2.55,2.55,0,0,0-.17,1,3.84,3.84,0,0,0,.83,0c1.17-.28,2.34-.57,3.51-.89a1.94,1.94,0,0,1,2,.55,4.43,4.43,0,0,1,.87,4.74,2.18,2.18,0,0,1-1.76,1.18c-1.21.24-2.43.42-3.63.66a2.46,2.46,0,0,0-.67.37c.13.22.2.56.39.66,2.05,1.06,4.15,2,6.55,1.6a4.07,4.07,0,0,0,.5-.13,3.56,3.56,0,0,0,.41-.17Z"/></g><path class="cls-9" d="M14,36.73A9.06,9.06,0,0,0,20.59,39,9.36,9.36,0,0,0,24,38.23a9.14,9.14,0,0,0,2.84-1.88l.32-.32.35.31a10.44,10.44,0,0,0,3.26,1.92,12.08,12.08,0,0,0,3.76.79,16.74,16.74,0,0,0,3.87-.27,8.47,8.47,0,0,0,3.46-1.41l.22-.17.21.09a28.18,28.18,0,0,0,4.93,1.52,31.89,31.89,0,0,0,5.17.75,25.74,25.74,0,0,1-5.26-.26A28.55,28.55,0,0,1,42,38l.43-.09a8.4,8.4,0,0,1-3.82,1.77,16.24,16.24,0,0,1-4.11.34,12.27,12.27,0,0,1-4.06-.85A10.89,10.89,0,0,1,26.83,37h.67a9.19,9.19,0,0,1-3.23,2,10.25,10.25,0,0,1-3.67.64A9.13,9.13,0,0,1,17,38.86,7.88,7.88,0,0,1,14,36.73Z"/><path class="cls-9" d="M14,37.49a8.65,8.65,0,0,0,6.42,2.58,9.64,9.64,0,0,0,6.71-2.65,11.72,11.72,0,0,0,8,2.9c5.09,0,7-1.91,7-1.91a29.62,29.62,0,0,0,10.25,1.91L38,51.19,14.32,48.52"/><path class="cls-8" d="M14,37.49a8.43,8.43,0,0,0,3,1.88,9.71,9.71,0,0,0,7-.25,8.67,8.67,0,0,0,2.9-1.91l.21-.21.23.21a10.56,10.56,0,0,0,3.33,1.94,12.09,12.09,0,0,0,3.8.74,16.82,16.82,0,0,0,3.88-.32,8.19,8.19,0,0,0,3.41-1.48l.23-.2.27.1a28.5,28.5,0,0,0,4.95,1.36,30.39,30.39,0,0,0,5.12.48h1.48l-1.18.89L38.22,51.54l-.14.11-.18,0c-3.94-.45-7.86-1-11.8-1.49s-7.86-1-11.78-1.62c3.95.32,7.9.66,11.85,1s7.89.75,11.83,1.19l-.31.08L52,39.93l.3.89a28.6,28.6,0,0,1-5.3-.53,29.21,29.21,0,0,1-5.12-1.46l.49-.1a8.61,8.61,0,0,1-3.87,1.69,15.69,15.69,0,0,1-4.1.29,12.34,12.34,0,0,1-4-.89,11.12,11.12,0,0,1-3.5-2.18h.44a9.43,9.43,0,0,1-3.16,2,9.83,9.83,0,0,1-3.63.65A8.86,8.86,0,0,1,14,37.49Z"/><path class="cls-9" d="M19.54,34.61c3.45.07,6.9.13,10.36.14s6.9,0,10.35-.08,6.89-.21,10.33-.45,6.87-.59,10.29-1.11a78.55,78.55,0,0,1-10.24,1.65c-3.45.35-6.91.49-10.37.61s-6.92,0-10.37-.08S23,35,19.54,34.61Z"/><path class="cls-8" d="M38.26,22.84,40.8,19.3s1.9-2.52,4.49-1.27C47.55,19.12,47,21.78,47,21.78l14,6.33-12.32,1s-7.25-.06-9.33-1.5S38.26,22.84,38.26,22.84Z"/></g><path class="cls-8" d="M24.77,1.32a23,23,0,1,1-23,23,23,23,0,0,1,23-23m0-1a24,24,0,1,0,24,24,24,24,0,0,0-24-24Z"/></g></svg>