<svg xmlns="http://www.w3.org/2000/svg" xmlns:xlink="http://www.w3.org/1999/xlink" viewBox="0 0 49 49"><defs><style>.cls-1{fill:none;}.cls-2{clip-path:url(#clip-path);}.cls-3,.cls-4,.cls-7,.cls-8{fill:#1e1d19;}.cls-3,.cls-6,.cls-7{stroke:#fff;}.cls-3,.cls-4,.cls-5,.cls-6{stroke-linecap:round;stroke-linejoin:round;}.cls-3,.cls-4,.cls-5{stroke-width:1.22px;}.cls-4,.cls-5{stroke:#1e1d19;}.cls-5,.cls-6,.cls-9{fill:#fff;}.cls-6{stroke-width:0.94px;}.cls-7{stroke-miterlimit:10;stroke-width:0.47px;}</style><clipPath id="clip-path"><circle class="cls-1" cx="24.5" cy="24.5" r="24"/></clipPath></defs><g id="Boat_Shop" data-name="Boat Shop"><g class="cls-2"><path class="cls-3" d="M4.82,26.73s10.85,8.05,25.25,7.48S70,25.38,70,25.38l-.26-2.72L12.23,25.21Z"/><path class="cls-4" d="M4.82,26S15.67,34,30.07,33.45s41.07-3,41.07-3l-1.4-8.58L12.23,24.45Z"/><path class="cls-5" d="M54.36,13.59S11.54,14.78,4.82,26c0,0,25,2.48,65.52-4.16Z"/><line class="cls-6" x1="21.03" y1="20.99" x2="21.03" y2="23.08"/><path class="cls-7" d="M23.17,14.36a12.51,12.51,0,0,0-1.8-.21,1.87,1.87,0,0,0-1.84,1.64c-.08.95-.26,2.56-.26,2.56s-1.3.26-1.25,1,.34,1.56,2,1.52,2.43.39,3,0S24.3,20,24.3,19.39a17.23,17.23,0,0,1,.39-3.17A1.55,1.55,0,0,0,23.17,14.36Zm.21,4.52-2.95-.27V18l2.95.44Z"/><path class="cls-8" d="M31.24,16.6l3.34-2.51s1.91-2.52,4.49-1.27c2.26,1.09,1.68,3.76,1.68,3.76l14,6.32-12.32,1s-6.42-.37-9.83-2.48S31.24,16.6,31.24,16.6Z"/><path class="cls-9" d="M6.74,30.34a9,9,0,0,0,6.55,2.27A9.63,9.63,0,0,0,19.53,30l.31-.32.35.31a10.8,10.8,0,0,0,3.27,1.92,12.08,12.08,0,0,0,3.75.79,16.83,16.83,0,0,0,3.88-.27A8.47,8.47,0,0,0,34.55,31l.24-.19.23.13a14.6,14.6,0,0,0,2.34,1,17.84,17.84,0,0,0,2.5.71,20.61,20.61,0,0,0,5.21.49,16.66,16.66,0,0,1-2.64.19,18.21,18.21,0,0,1-2.66-.19,18,18,0,0,1-2.62-.59,15.26,15.26,0,0,1-2.52-1l.47-.07a8.5,8.5,0,0,1-3.82,1.77,16.24,16.24,0,0,1-4.11.34,12.38,12.38,0,0,1-4.07-.85,11,11,0,0,1-3.56-2.2h.66a9.15,9.15,0,0,1-3.22,2,10.34,10.34,0,0,1-3.68.64,9.2,9.2,0,0,1-3.62-.75A7.93,7.93,0,0,1,6.74,30.34Z"/><path class="cls-9" d="M6.65,31.1a8.65,8.65,0,0,0,6.42,2.58A9.64,9.64,0,0,0,19.78,31a11.73,11.73,0,0,0,8,2.9c5.08,0,7-1.91,7-1.91a21.79,21.79,0,0,0,7.93,1.81c4,0,7-3.58,7-3.58l-3.07,19.4L9.4,53.57"/><path class="cls-8" d="M6.65,31.1A8.23,8.23,0,0,0,9.7,33a9.61,9.61,0,0,0,7-.24,8.81,8.81,0,0,0,2.91-1.91l.21-.21.23.21a10.56,10.56,0,0,0,3.33,1.94,12,12,0,0,0,3.8.74A16.82,16.82,0,0,0,31,33.18a8.25,8.25,0,0,0,3.41-1.48l.24-.21.27.12a24.2,24.2,0,0,0,3.78,1.23,18.05,18.05,0,0,0,3.92.49c2.54,0,5-1.5,6.74-3.36l1-1-.23,1.4L47,49.7l0,.27-.26,0L28,51.82,9.4,53.57,28,51.4l18.6-2.09-.3.29,3-19.42.76.36a12.51,12.51,0,0,1-3.3,2.63,8.73,8.73,0,0,1-4.11,1.16,18.44,18.44,0,0,1-4.14-.56,24.4,24.4,0,0,1-3.94-1.34l.51-.09A8.66,8.66,0,0,1,31.19,34a16.16,16.16,0,0,1-4.1.29,12.34,12.34,0,0,1-4-.89,11.12,11.12,0,0,1-3.5-2.18H20a9.37,9.37,0,0,1-3.17,2,9.78,9.78,0,0,1-3.62.65A8.89,8.89,0,0,1,6.65,31.1Z"/><path class="cls-9" d="M12.24,28.22c3.46.07,6.91.13,10.36.14s6.91,0,10.35-.08,6.9-.21,10.34-.45,6.87-.59,10.29-1.11a78.7,78.7,0,0,1-10.25,1.65c-3.44.35-6.9.49-10.36.61s-6.92,0-10.38-.08S15.68,28.58,12.24,28.22Z"/></g><path class="cls-8" d="M24.5,1.5a23,23,0,1,1-23,23,23,23,0,0,1,23-23m0-1a24,24,0,1,0,24,24,24,24,0,0,0-24-24Z"/></g></svg>