<svg xmlns="http://www.w3.org/2000/svg" xmlns:xlink="http://www.w3.org/1999/xlink" viewBox="0 0 49 49"><defs><style>.cls-1,.cls-4{fill:none;}.cls-2{clip-path:url(#clip-path);}.cls-3{fill:#1e1d19;}.cls-4{stroke:#1e1d19;stroke-linecap:round;stroke-miterlimit:10;}.cls-5{fill:#fff;}.cls-6{clip-path:url(#clip-path-2);}</style><clipPath id="clip-path"><circle class="cls-1" cx="24.5" cy="24.5" r="23.8"/></clipPath><clipPath id="clip-path-2"><circle class="cls-1" cx="24.5" cy="100.5" r="24"/></clipPath></defs><g id="Bore_Sighting" data-name="Bore Sighting"><circle class="cls-1" cx="24.5" cy="24.5" r="23.8"/><g class="cls-2"><path class="cls-3" d="M-9.32,28.94c1.25-.42,2.49-.71,3.74-1H16.88c1.24.3,2.49.6,3.74,1-1.25.4-2.5.69-3.74,1H-5.58C-6.83,29.65-8.07,29.35-9.32,28.94Z"/><path class="cls-3" d="M20.62,28.94c1.51-.42,3-.71,4.54-1H52.41c1.51.3,3,.6,4.54,1-1.51.4-3,.69-4.54,1H25.16C23.65,29.65,22.13,29.35,20.62,28.94Z"/><path class="cls-3" d="M20.62,28.94c.41,1.25.71,2.49,1,3.74V55.13c-.31,1.25-.6,2.5-1,3.75-.4-1.25-.7-2.5-1-3.75V32.68C19.91,31.43,20.2,30.19,20.62,28.94Z"/><path class="cls-3" d="M20.62-12.44c.41,1.72.71,3.45,1,5.17v31c-.31,1.72-.6,3.44-1,5.17-.4-1.73-.7-3.45-1-5.17v-31C19.91-9,20.2-10.72,20.62-12.44Z"/><path class="cls-3" d="M17.25,38.75a5.65,5.65,0,0,1,.84-.62h5.05a5.83,5.83,0,0,1,.85.61,7.86,7.86,0,0,1-.85.61H18.93c-.28,0-.56,0-.84,0A7.53,7.53,0,0,1,17.25,38.75Z"/><path class="cls-3" d="M14.66,42.69a11.77,11.77,0,0,1,1.49-.62h8.94a15.52,15.52,0,0,1,1.48.62c-.49.24-1,.42-1.48.61H16.15A13.35,13.35,0,0,1,14.66,42.69Z"/></g><path class="cls-4" d="M40.82,33.37c-.06-.25-13.18-25.62-13.18-25.62"/><path class="cls-4" d="M25.79,26.59C26,26.45,41.54,9.08,41.54,9.08"/><path class="cls-4" d="M13.39,15.56c.24.09,32.93,4.69,32.93,4.69"/><line class="cls-4" x1="33.51" y1="9.06" x2="33.04" y2="25.94"/><line class="cls-4" x1="41.26" y1="23.69" x2="25.2" y2="13.12"/><line class="cls-4" x1="24.5" y1="22.19" x2="42.01" y2="14.87"/><circle class="cls-5" cx="33.04" cy="18.53" r="2.98"/><circle class="cls-3" cx="33.04" cy="18.53" r="2.25"/><path class="cls-3" d="M24.5,1.5a23,23,0,1,1-23,23,23,23,0,0,1,23-23m0-1a24,24,0,1,0,24,24,24,24,0,0,0-24-24Z"/></g><g id="Gun_Library" data-name="Gun Library"><g class="cls-6"><g id="T79kq6.tif"><path class="cls-3" d="M35.36,111.56a7.19,7.19,0,0,1-.24.94,1.44,1.44,0,0,1-1.68,1.07c-.27-.06-.35.08-.43.32l-1,3c-.35,1-.68,2-1,3.06a5,5,0,0,0,.2,4.39,1.64,1.64,0,0,1,.18.79c0,.62-.09,1.24-.17,1.85-.16,1.38-.32,2.77-.51,4.15s-.39,2.47-.57,3.71c-.28,2-.54,4-.81,6l-.78,5.62c-.15,1.08-.28,2.16-.46,3.23a.72.72,0,0,1-.38.49,1.84,1.84,0,0,1-1,0c-1.24-.39-2.45-.88-3.68-1.26a16.14,16.14,0,0,0-2.52-.59c-1-.15-2-.18-3.05-.26-.24,0-.43-.1-.34-.45.2-.77.38-1.56.63-2.31.32-.95.69-1.88,1.05-2.82a.64.64,0,0,0-.06-.71.54.54,0,0,1,.31-.91.74.74,0,0,0,.41-.35c.27-.64.5-1.3.73-2l2.13-5.91c.32-.9.61-1.81.94-2.71.51-1.36,1-2.71,1.55-4.08a.74.74,0,0,0,0-.55c-.05-.1-.28-.12-.42-.08a.4.4,0,0,1-.56-.26,6.34,6.34,0,0,1-.28-1.08,20.78,20.78,0,0,1-.34-2.35c0-.62.14-1.19.6-1.28s.75-.21,1.13-.31a4.34,4.34,0,0,0,2.78-2.44,20.83,20.83,0,0,0,.82-2.3c.13-.38,0-.61-.32-.71s-.54-.13-.8-.21a1.44,1.44,0,0,1-1-1.36,5.54,5.54,0,0,1,.58-3.13,1.43,1.43,0,0,1,1.6-.83.58.58,0,0,0,.66-.52c0-.25.83-4.7,1-5.72.3-1.85,1.56-10.86,1.63-11.39.22-1.61.43-3.22.65-4.83.31-2.23.63-4.45.94-6.68.19-1.34.37-2.69.55-4,.12-.85.58-4,.6-4.21.23-1.54.44-3.09.65-4.64.15-1.1.93-1.66,1.77-1.24a1.09,1.09,0,0,0,.17,0C38,56.86,38.77,48,39.59,39a9.72,9.72,0,0,1,1,.14.49.49,0,0,1,.24.37c-.07,1.21-.16,2.42-.26,3.63-.22,2.63-.46,5.26-.67,7.89-.15,1.8-.27,3.6-.42,5.39-.11,1.33-.26,2.65-.37,4-.13,1.64-.22,3.29-.36,4.93-.21,2.51-.44,5-.66,7.52q-.29,3.48-.56,7c-.12,1.49-.23,3-.32,4.47-.13,1.89-.23,3.78-.35,5.67,0,.74-.14,1.48-.14,2.22s.09,1.53.12,2.3c0,.27.41,1.84,1,1.82,0-.2,0-.4,0-.6-.05-1.08-.08-2.17-.17-3.25a24.31,24.31,0,0,1,.09-5.72c0-.27.06-.52.35-.5l3.47.38c.2,0,.32.15.31.44,0,.76,0,1.53-.1,2.27-.16,1.07-.42,2.11-.68,3.15-.3,1.26-.66,2.49-1,3.75,0,.16-.22,2.57-.28,2.91-.09.56-.12,1.14-.16,1.71s.08.63.5.6.85.32.8,1L41,103.45c-.07.69-.38,1-1,.91s-.55,0-.59.58-.11,1-.14,1.48c-.05.68-.18,8-.17,8.83,0,.48-.13,1.6-.17,1.91s-.11.86-.13,1.29-.15.48-.42.44l-2.61-.32c-.33,0-.44-.25-.4-.63.07-.78.11-1.56.2-2.34s.2-1.31.31-2c.07-.47.65-3.31.73-3.68C35.92,109.81,35.43,111.26,35.36,111.56Zm-7.07,1.24c.5.11.67-.85.74-1.24.18-.89.56-1.51.08-1.9s-.83.45-1.11,1.09S27.7,112.55,28.29,112.8Zm8.19-13.94c0,.12-.71,8.15-.72,8.38,0,.51.56,1,1,.82.07,0,.87-9,.93-9.85C37,97.91,36.69,98.09,36.48,98.86Z"/></g><g id="T79kq6.tif-2" data-name="T79kq6.tif"><path class="cls-3" d="M11.57,106.36c.22-.75,2.33-15,2.36-15.93a16.87,16.87,0,0,1-.24-2.55c0-.65.08-1.29.12-1.93l.3-4.93c.09-1.29.18-2.58.28-3.87.16-2,.32-4,.49-6.05.19-2.18.39-4.35.57-6.53.12-1.42.2-2.85.32-4.28.09-1.15.22-2.3.32-3.45.13-1.56.23-3.12.36-4.68q.29-3.44.59-6.85c.08-1.05.16-2.1.22-3.15a.39.39,0,0,0-.21-.32,4.9,4.9,0,0,0-.9-.12C15.43,49.51,14.72,57.23,14,65l-.14,0c-.73-.36-1.41.12-1.54,1.07-.18,1.35-.36,2.69-.56,4,0,.15-.42,2.91-.52,3.65-.16,1.17-.32,2.34-.49,3.51L10,83c-.19,1.4-.37,2.8-.56,4.19-.07.47-1.16,8.29-1.42,9.9-.15.88-.84,4.74-.87,5a.49.49,0,0,1-.57.45,1.25,1.25,0,0,0-1.39.73,4.7,4.7,0,0,0-.5,2.71,1.25,1.25,0,0,0,.89,1.18l.7.19c.3.08.39.28.27.61a15.6,15.6,0,0,1-.71,2A3.8,3.8,0,0,1,3.38,112c-.33.08-.65.2-1,.27s-.55.57-.52,1.11a19.86,19.86,0,0,0,.3,2,4.91,4.91,0,0,0,.25,1,.34.34,0,0,0,.48.22c.12,0,.32,0,.37.06a.74.74,0,0,1,0,.49c-.44,1.19-.91,2.36-1.35,3.54-.28.78-.54,1.57-.81,2.35q-.91,2.56-1.85,5.13c-.2.57-.4,1.15-.63,1.7a.59.59,0,0,1-.36.3A.47.47,0,0,0-2,131a.57.57,0,0,1,.05.62c-.31.82-.63,1.62-.91,2.45-.21.66-.37,1.34-.54,2-.08.3.09.38.29.39.88.07,1.77.09,2.64.22a15.11,15.11,0,0,1,2.19.51c1.07.34,2.13.76,3.2,1.1a1.47,1.47,0,0,0,.83,0,.58.58,0,0,0,.33-.43c.16-.92.27-1.86.4-2.79.23-1.63.46-3.26.68-4.89s.46-3.46.71-5.19c.15-1.08.34-2.15.49-3.23s.3-2.4.44-3.6c.07-.53.13-1.07.15-1.6a1.59,1.59,0,0,0-.16-.69A4.29,4.29,0,0,1,8.64,112c.32-.88.61-1.77.91-2.66s.59-1.74.88-2.62c.07-.21.15-.33.38-.28A1,1,0,0,0,11.57,106.36ZM7,104.72c-.06.34-.2,1.16-.65,1.07s-.54-1.1-.24-1.78.52-1.3,1-.94S7.13,103.94,7,104.72Z"/></g><g id="AafVvu.tif"><path class="cls-3" d="M18.88,91.67c.1-1.22.25-2.43.38-3.65q.9-8.67,1.8-17.36c.13-1.14.34-2.28.54-3.42,0-.2.17-.51.32-.55.43-.12.39-.47.51-.77s2.63-.19,2.57.34c0,0,.11.12.17.19s.14-.11.17-.18a1,1,0,0,0,0-.29q1-10.2,2.06-20.39c.1-1,.33-1.17,1.32-.93a3.94,3.94,0,0,1,.49.14c.49.21.71.56.62.91a8.57,8.57,0,0,0-.21,1c-.3,3.16-.58,6.31-.88,9.47-.27,2.79-.56,5.57-.83,8.36-.56,5.71-1.09,11.41-1.65,17.12-.39,4-.82,8-1.23,12-.32,3.12-.62,6.24-1,9.36-.19,1.74-.4,3.47-.72,5.19a23,23,0,0,1-1.95,5.16c-.57,1.27-1.3,2.46-2,3.69a5,5,0,0,0-.34,4,2.37,2.37,0,0,1,.08,1.12c-.6,3.32-1.23,6.64-1.85,10-.46,2.47-.91,4.93-1.36,7.4-.12.64-.28.83-.94.86a5.34,5.34,0,0,1-1.38-.08c-1.09-.21-2.17-.49-3.26-.73-2.09-.45-4.18-.88-6.27-1.34-.74-.16-.83-.33-.47-1,.84-1.56,1.73-3.09,2.59-4.64.09-.16.21-.39.16-.54-.17-.51.12-.74.48-1a2.14,2.14,0,0,0,.59-.57c.54-.82,1.06-1.66,1.57-2.5.94-1.55,1.86-3.1,2.78-4.64a.74.74,0,0,0-.1-1,.85.85,0,0,1-.22-.48c-.18-1.16-.35-2.31-.48-3.47-.08-.7,0-.72.64-.88a7.21,7.21,0,0,0,5.8-5.69.81.81,0,0,0-.69-1.1,1.66,1.66,0,0,1-1.41-1.57,5.48,5.48,0,0,1,1.55-4.72c.33-.34,2.08-3.76,2-4.67a12.3,12.3,0,0,1,.12-1.35c.09-1.18.15-2.36.27-3.53.07-.73.23-1.45.35-2.17C18.83,92.62,18.8,92.62,18.88,91.67Zm-2.35,14.92c-.16.5,0,.78-.13,1.29-.06.25.06.4.24.57.61.56,1.37.16,1.36-.68,0-.44.08-.87.1-1.3a.77.77,0,0,0-.55-.82c-.27-.09-.27.12-.56.11A4.5,4.5,0,0,0,16.53,106.59Z"/></g></g></g></svg>