<svg xmlns="http://www.w3.org/2000/svg" xmlns:xlink="http://www.w3.org/1999/xlink" viewBox="0 0 49 49"><defs><style>.cls-1,.cls-6{fill:none;}.cls-2{clip-path:url(#clip-path);}.cls-3{fill:#fff;}.cls-3,.cls-7{stroke:#1e1d19;stroke-width:2px;}.cls-3,.cls-6,.cls-7{stroke-miterlimit:10;}.cls-4{fill:#1e1d19;}.cls-5,.cls-7{fill:#e1e0db;}.cls-6{stroke:#e1e0db;stroke-width:0.15px;}</style><clipPath id="clip-path"><circle class="cls-1" cx="24.5" cy="24.5" r="23.8"/></clipPath></defs><g id="Bowling"><circle class="cls-1" cx="24.5" cy="24.5" r="23.8"/><g class="cls-2"><path class="cls-3" d="M19.42,12.18a.76.76,0,0,0,.77-.7c.27-2.77.79-3.37.79-6.22A4.48,4.48,0,0,0,16.79.7,4.48,4.48,0,0,0,12.6,5.26c0,3,.56,3.5.82,6.57a.37.37,0,0,0,.37.35Z"/><path class="cls-3" d="M20,15.4c0-.08-6.5-.08-6.5,0,0,7.32-5.08,11.11-5.08,21.66a33.81,33.81,0,0,0,3.63,15.61,24,24,0,0,0,4.7.5,24,24,0,0,0,4.7-.5,33.81,33.81,0,0,0,3.63-15.61C25.12,26.51,20,22.72,20,15.4Z"/><circle class="cls-4" cx="30.36" cy="33.36" r="15.94"/><ellipse class="cls-5" cx="24.72" cy="27.32" rx="2.36" ry="2.25" transform="matrix(0.35, -0.94, 0.94, 0.35, -9.55, 40.84)"/><ellipse class="cls-4" cx="26.48" cy="27.6" rx="2.36" ry="2.25" transform="translate(-8.68 42.67) rotate(-69.4)"/><ellipse class="cls-5" cx="20.3" cy="25.25" rx="2.37" ry="1.23" transform="translate(-12.1 25.42) rotate(-51.5)"/><ellipse class="cls-4" cx="21.26" cy="26.02" rx="2.37" ry="1.23" transform="translate(-12.34 26.46) rotate(-51.5)"/><ellipse class="cls-5" cx="18.41" cy="34.06" rx="1.29" ry="2.3"/><ellipse class="cls-4" cx="19.7" cy="34.06" rx="1.29" ry="2.3"/><ellipse class="cls-6" cx="24.72" cy="27.32" rx="2.36" ry="2.25" transform="matrix(0.35, -0.94, 0.94, 0.35, -9.55, 40.84)"/><ellipse class="cls-6" cx="20.3" cy="25.25" rx="2.37" ry="1.23" transform="translate(-12.1 25.42) rotate(-51.5)"/><ellipse class="cls-6" cx="18.41" cy="34.06" rx="1.29" ry="2.3"/><line class="cls-7" x1="20.19" y1="11.48" x2="20.1" y2="16.82"/><line class="cls-7" x1="13.42" y1="11.83" x2="13.42" y2="17.33"/></g><path class="cls-4" d="M24.5,1.5a23,23,0,1,1-23,23,23,23,0,0,1,23-23m0-1a24,24,0,1,0,24,24,24,24,0,0,0-24-24Z"/></g></svg>