<svg xmlns="http://www.w3.org/2000/svg" viewBox="0 0 49 49"><defs><style>.cls-1{fill:none;}.cls-2{fill:#1e1d19;}</style></defs><g id="Conefrence_room" data-name="Conefrence room"><circle class="cls-1" cx="24.5" cy="24.5" r="23.8"/><g id="KprgFq.tif"><path class="cls-2" d="M17.52,38.19c0-1.16,0-2.37,0-3.58a2.23,2.23,0,0,0-1.95-2.51c-1.35-.37-2.67-.81-4.08-1.24a5.37,5.37,0,0,0-.05,2.43c1,0,1.74-.89,2.86-.66l-.07,1c-.75.06-1.47-.08-2.07.59l2.07.9c.14.51.19.94-.49,1.19-.63-1.16-1.89-1.23-2.93-1.72l-2.42,1L8,36.3l-.62,0-.06-1.13,2.11-.91c-.21-.42-.61-.41-.89-.55l-1.13.26v-1.3c1-.17,1.73.59,2.69.71a8.63,8.63,0,0,0,.07-2.59c-1-.39-2.06-.42-2.8-1.31-.45-2.27-.9-4.58-1.37-6.88-.21-1.05-.49-2.08-.71-3.12a3.39,3.39,0,0,1-.1-1.09A1.4,1.4,0,0,1,6.6,16.9c1.5-.15,3-.22,4.51-.23.86,0,1.28.65,1.51,1.4s.42,1.56.64,2.34a2,2,0,0,0,.48.87c0-.15.12-.32.09-.45-.25-1-.46-2-.8-3a2.15,2.15,0,0,0-2.2-1.67,3,3,0,0,1-.43,0c-.34-1.22,0-1.77,1.18-1.9a29.61,29.61,0,0,1,3-.19,1.52,1.52,0,0,1,1.75,1.32A7.44,7.44,0,0,0,17,17.15a1.33,1.33,0,0,0,.11-.5c-.05-.33-.18-.64-.25-1-.24-1.29-.87-2.18-2.31-2.17-.14-1.06,0-1.37.9-1.57A16.29,16.29,0,0,1,18,11.61c.86,0,1.24.29,1.49,1.16.12.38.21.77.33,1.23l.76-.17c.21-.06.42-.15.74-.26,0-.64,0-1.3,0-2a1.42,1.42,0,0,1,1-1.55,5.66,5.66,0,0,1,4.51,0,1.51,1.51,0,0,1,1,1.54c0,.66,0,1.32,0,2l1.43.49c.14-.4.27-.76.38-1.13.35-1.18.68-1.43,1.91-1.33a16.13,16.13,0,0,1,2.07.3c.89.2,1,.46,1,1.55-.23,0-.48.07-.72.13a1.68,1.68,0,0,0-1.33,1.06c-.27.75-.44,1.54-.64,2.32,0,0,.08.11.19.24a2.56,2.56,0,0,0,.47-1.15c.09-.32.15-.65.27-1A1.43,1.43,0,0,1,34.46,14c1,0,2.06.08,3.08.19s1.42.63,1.18,1.85a1.67,1.67,0,0,1-.3.08A2.31,2.31,0,0,0,36,18.1c-.27.92-.51,1.85-.75,2.77,0,.15.05.32.26.51a3.12,3.12,0,0,0,.18-.42c.23-.85.44-1.71.68-2.56.31-1.14.87-1.88,2.27-1.76s2.57.11,3.85.25c1,.12,1.33.56,1.38,1.54a4.46,4.46,0,0,1-.09,1.21c-.68,3.24-1.39,6.47-2.12,9.87-.69.89-2,.88-3.09,1.28v2.59l2.76-.94v1.07L39.2,34c.69.7,1.49.7,2.1,1.16.13.43.24.87-.43,1.19l-.61-.82-2.32-.92-2.43,1-.32.74h-.64l-.09-1.13,2.16-1-.9-.54-.9.27c-.35-.17-.37-.3-.21-1.29,1-.16,1.72.71,2.73.7v-2c-.27.05-.47.08-.67.13-1.06.29-2.12.6-3.19.88a2,2,0,0,0-1.64,2c0,1,0,1.92,0,2.88v1a2.91,2.91,0,0,1-1.79.95,26.26,26.26,0,0,1-10.74,0A2.89,2.89,0,0,1,17.52,38.19ZM10.51,27a6.47,6.47,0,0,0,1,.85,13.44,13.44,0,0,0,1.9.85,31.6,31.6,0,0,0,9,1.67,39.65,39.65,0,0,0,11-.88,38.23,38.23,0,0,0,4-1.26,1.71,1.71,0,0,0,1.21-1.12c-.12-.18-.23-.41-.39-.61-2.79-3.56-5.6-7.11-8.39-10.68a3.19,3.19,0,0,0-1.91-1.21,15.81,15.81,0,0,0-6.57,0A3.67,3.67,0,0,0,19.06,16c-2.61,3.38-5.27,6.72-7.91,10.08C11,26.35,10.77,26.62,10.51,27Z"/></g><path class="cls-2" d="M24.5,1.5a23,23,0,1,1-23,23,23,23,0,0,1,23-23m0-1a24,24,0,1,0,24,24,24,24,0,0,0-24-24Z"/></g></svg>