<svg xmlns="http://www.w3.org/2000/svg" viewBox="0 0 49 49"><defs><style>.cls-1{fill:#1e1d19;}</style></defs><g id="Deli"><path class="cls-1" d="M26.56,37.76c-3.48.12-7,.08-10.44.19-1.18,0-1.35-.55-1.4-1.5s0-1.77,1.2-1.68a42.81,42.81,0,0,1,6.21.75c2.2.5,4.18.62,6.19-.68s4.16-1.07,6.27-.4A3.92,3.92,0,0,0,38.37,34a2.66,2.66,0,0,1,3.47,0,4.56,4.56,0,0,0,4.42.5,24,24,0,0,0,1.56-5.26,14.82,14.82,0,0,1-3.66-.36,9.46,9.46,0,0,0-6.11.33,13.59,13.59,0,0,1-7.27.66,31.18,31.18,0,0,0-7.15.21c-2.71.27-5.39,1-8.1,1.1a7.16,7.16,0,0,1-4-1.25c-1.28-.84-1-2.21.2-3.18,2.07-1.6,4.17-1.29,6.21.37a7.36,7.36,0,0,0,4.19,1.8c4.12,0,8.3-.16,11.67-3.12a1.45,1.45,0,0,1,2.41.37A4.32,4.32,0,0,0,40.53,28c2.52-.25,5-.38,7.55-.71,0-.38.06-.76.08-1.14h0c-3.1.21-6.22.28-9.32.26-.71,0-1.42-.65-2.34-1.1l10.25-.91-1.3.84.19.53,2.58-.7A23.84,23.84,0,0,0,48,22.36c-7.59.32-15.18.7-22.77,1-3.75.14-7.51.12-11.26,0-3.09-.08-3.92-1.21-3.51-4.24a8.9,8.9,0,0,1,4.09-6.59A26.38,26.38,0,0,1,19,10.26C22.07,9,23.68,10,24,13.41c0,.41.15.82.23,1.22l.54-.05c.83-2-.33-3.64-1.33-5.26,2.18-1.24,2.8-.71,4.61,3.84,1.36-1.56-.23-2.85-.31-4.24,2.73-.63,5.58,1.48,8.5-.63.69,1.44,1.38,2.85,2.07,4.27l.61-.18L37.86,8.17c1.72-.89,2.22-.46,3.71,3.39.75-1,.85-1.16,0-2.92A22.66,22.66,0,0,0,39,6.37a35.52,35.52,0,0,0-3.71.7,16.46,16.46,0,0,1-5.19.34c-8-.75-15,1.35-20.2,7.77A12,12,0,0,0,8,19.71c-.63,2.4.35,4.21,2.72,5.22-3.1,2.58-3.24,3.64-1.43,6.22-.13,1.71-.65,3.11-.17,3.94s1.94.92,3.31,1.48l1.15,3.18h18c2.64-.13,5.28-.28,7.93-.38a20.8,20.8,0,0,0,2.84.07c.4-.08.8-.12,1.21-.18A22.19,22.19,0,0,0,45,37Q35.79,37.4,26.56,37.76ZM31.2,25.5c-1.82,2.63-9.58,3-12.54,0Z"/><path class="cls-1" d="M13.73,27.35c-.24.51-.79,1.13-.66,1.51.54,1.61,1.93,1.45,3.46,1.33-1-.77-3.09-.45-2.21-2.58Z"/><path class="cls-1" d="M24.5,1.5a23,23,0,1,1-23,23,23,23,0,0,1,23-23m0-1a24,24,0,1,0,24,24,24,24,0,0,0-24-24Z"/></g></svg>