<svg xmlns="http://www.w3.org/2000/svg" viewBox="0 0 49 49"><defs><style>.cls-1{fill:#1e1d19;}</style></defs><g id="Dining"><g id="ajsi1B.tif"><path class="cls-1" d="M26.05,10.39a14.73,14.73,0,0,1,13.66,14.2H11.1c-.32-5,4.11-13.43,13.67-14.2,0-.29,0-.66-.15-.85-.7-.82-.5-1.41.49-1.92-1.39,0-1.74.6-1.2,1.76l-.19.11c-.23-.39-.65-.8-.63-1.19a1.61,1.61,0,0,1,.76-1.08,2.89,2.89,0,0,1,2.79-.1c.44.21,1,.77,1,1.17s-.56.87-1,1.19S25.71,9.71,26.05,10.39Zm-5.52,2.87c-3.25.77-7.06,6.27-6.7,9.6h1.09A14.43,14.43,0,0,1,20.53,13.26Z"/><path class="cls-1" d="M17,38.6c-.35-1.86-.7-3.73-1.07-5.59-.1-.48.13-.64.5-.82a15.2,15.2,0,0,1,8.28-1.8c1,.1,2.05,0,3.07.06.35,0,.66.45,1,.69-.27.27-.49.69-.81.79-1.17.36-2.37.59-3.54.91-.41.1-1.06.08-.93.71.05.23.64.4,1,.48a7.5,7.5,0,0,0,1.27.11,9.51,9.51,0,0,0,5.06-.75c1.65-.8,3.41-1.39,5.13-2.06a1.91,1.91,0,0,1,.8-.25,4.41,4.41,0,0,1,1,.32c-.12.32-.14.78-.37.93-2.59,1.8-5.21,3.56-7.83,5.31a2.09,2.09,0,0,1-1,.18c-2.67.09-5.34.13-8,.26C19.37,38.14,18.24,38.41,17,38.6Z"/><path class="cls-1" d="M6.67,25.91H44A3.31,3.31,0,0,1,41.39,27a2.67,2.67,0,0,0-2.7,1.26A2.86,2.86,0,0,1,36,29.45c-7.3-.05-14.61,0-21.91,0a3.75,3.75,0,0,1-3.07-1.73H23.44c.37,0,.88.13.7-.66H9.59A4.12,4.12,0,0,1,6.67,25.91Z"/><path class="cls-1" d="M8,42.19C8,39,3,36.85,3,33.64c1.35-.2,11.21-2.44,12.64-2.65l1.88,8.49C15.45,40,10,41.65,8,42.19Zm8-4c-.59-.45-.9-.87-1.28-.93a.82.82,0,0,0-.95.92c0,.55.37,1,.91.87C15.13,39,15.45,38.59,16.06,38.18Z"/></g><path class="cls-1" d="M24.5,1.5a23,23,0,1,1-23,23,23,23,0,0,1,23-23m0-1a24,24,0,1,0,24,24,24,24,0,0,0-24-24Z"/></g></svg>