<svg xmlns="http://www.w3.org/2000/svg" viewBox="0 0 49 49"><defs><style>.cls-1{fill:none;}.cls-2{fill:#1e1d19;}</style></defs><g id="Dog_Friendly" data-name="Dog Friendly"><circle class="cls-1" cx="24.5" cy="24.5" r="23.8"/><g id="_3UMkya.tif" data-name="3UMkya.tif"><path class="cls-2" d="M14.22,22.51c-1.35-.54-2.49-1-3.63-1.45a6.2,6.2,0,0,1-3.3-2.93,9.65,9.65,0,0,1-.48-1.59c.54.29.87.45,1.19.63,2.36,1.36,4.67,2.8,7.09,4a7.17,7.17,0,0,0,2.83.75c2.71.15,5.44.06,8.16.06h1.09l.69,7.71c-2.8-.41-5.5-.78-8.19-1.2a.94.94,0,0,0-1.05.36C17.78,30,16.9,31.09,16,32.19c-.12.16-.3.41-.26.56a19.83,19.83,0,0,0,1,2.93,2,2,0,0,0,1.16.8c.54.18.7.43.53,1-.85,0-1.7,0-2.54,0a.57.57,0,0,1-.47-.35c-.58-1.63-1.19-3.27-1.66-4.94a5.83,5.83,0,0,1,.23-2c-1.09.77-2,1.43-3,2.12a.79.79,0,0,0-.2.5A16.33,16.33,0,0,0,10.67,35c0,.81.64,1.21,1.36,1.41.54.14.85.36.6,1-.82,0-1.66,0-2.5,0a.51.51,0,0,1-.39-.21c-.44-.92-1.14-1.73-.73-3a5.07,5.07,0,0,0,.2-2c-.06-.87.1-1.52.81-1.83a3.35,3.35,0,0,0,2.09-3c.1-.81.41-1.59.57-2.39A3.42,3.42,0,0,1,14.22,22.51Z"/><path class="cls-2" d="M38.42,37.5c-.82,0-1.64,0-2.45,0a1.06,1.06,0,0,1-.68-.55c-.86-2.18-1.67-4.37-2.49-6.57-.14-.37-.26-.76-.48-1.39a5.86,5.86,0,0,0-.79,1.18c-.45,1.43-.85,2.88-1.26,4.33a1.41,1.41,0,0,0,1.1,2c.7.23.7.23.69,1H29.18c-.28-.68-.59-1.37-.86-2.08a1.29,1.29,0,0,1-.06-.73,34,34,0,0,0,.81-4.09A35,35,0,0,0,28.91,26c-.07-1.25-.21-2.5-.33-3.93l6.68,3.88a2.57,2.57,0,0,1-.4.78c-.77.7-.57,1.46-.3,2.3.63,1.95,1.21,3.91,1.77,5.88a2.08,2.08,0,0,0,1.54,1.62C38.49,36.68,38.48,36.71,38.42,37.5Z"/><path class="cls-2" d="M41.52,19.61a1.49,1.49,0,0,1-1.93,1.21,2.2,2.2,0,0,0-2.87,1.81,15.65,15.65,0,0,1-.95,2.07l-5.53-3.22c1.46-1.71,2.85-3.41,4.32-5A2.27,2.27,0,0,1,37.15,16c.91.35,2,.66,1.94,2,0,.16.23.39.42.5C40.18,18.87,40.87,19.25,41.52,19.61Z"/><path class="cls-2" d="M27.53,21.26C26,18.57,17.9,5,16.32,2.27l1-.55C18.85,4.4,26.92,18,28.5,20.7Z"/></g><path class="cls-2" d="M24.5,1.5a23,23,0,1,1-23,23,23,23,0,0,1,23-23m0-1a24,24,0,1,0,24,24,24,24,0,0,0-24-24Z"/></g></svg>