<svg xmlns="http://www.w3.org/2000/svg" xmlns:xlink="http://www.w3.org/1999/xlink" viewBox="0 0 49 49"><defs><style>.cls-1{fill:none;}.cls-2{clip-path:url(#clip-path);}.cls-3,.cls-5{fill:#fff;}.cls-3,.cls-4,.cls-5{stroke:#fff;}.cls-3{stroke-miterlimit:10;stroke-width:3px;}.cls-4,.cls-6{fill:#1e1d19;}.cls-4,.cls-5{stroke-linejoin:round;}.cls-5{stroke-width:0.21px;}</style><clipPath id="clip-path"><circle class="cls-1" cx="24.5" cy="24.5" r="23.8"/></clipPath></defs><g id="Fudge_Nuts" data-name="Fudge &amp; Nuts"><circle class="cls-1" cx="24.5" cy="24.5" r="23.8"/><g class="cls-2"><polygon class="cls-3" points="17.95 38.38 0.78 41.03 0.15 28.21 17.95 26.83 17.95 38.38"/><polygon class="cls-4" points="17.95 26.83 0.47 30.65 -2.71 21.43 12.44 18.04 17.95 26.83"/><polygon class="cls-4" points="0.51 35.42 18.48 32.02 17.95 26.83 0.47 30.65 0.51 35.42"/><polygon class="cls-4" points="15.21 43.31 34.68 49.72 43.05 36.37 42.52 24.4 14.71 31.56 15.21 43.31"/><path class="cls-4" d="M15.4,32.2l1.9.43,1.86.41,1.4-.46,1.67,1.15,2.27.51,1.39-.41,1.63,1.08L32.27,36a2.74,2.74,0,0,0,2.83-1.09l6.65-9.4a.87.87,0,0,0-.53-1.35L25.36,20.9,15.06,31A.7.7,0,0,0,15.4,32.2Z"/><path class="cls-4" d="M9.81,22,9.05,11.16l27.12.53.67,10.43a1.7,1.7,0,0,1-.93,1.61L24.26,29.51a4.62,4.62,0,0,1-4.47-.2l-8.86-5.44A2.36,2.36,0,0,1,9.81,22Z"/><path class="cls-4" d="M10.39,11.91l2.35,1.32,1.32-.15.78,1.34L16.39,16l3.5,1.26a4.22,4.22,0,0,0,3.82.16l11-5.05a.81.81,0,0,0,0-1.45L33,10l-1.19-.63-1.22-.64L29.48,7.08,27.31,7,24.36,5.44a2.84,2.84,0,0,0-2.48-.07L10.45,10.52A.78.78,0,0,0,10.39,11.91Z"/><path class="cls-5" d="M23.76,43.22c-.62-.1-1.16-.14-1.68-.27a3.62,3.62,0,0,0-1.71-.1c-.51.11-1.15-.31-1.72-.48,0-.27,0-.44,0-.6-.19-1.53-.73-2.08-2.22-2.25-.4-.05-.78-.16-1.19-.24a4.4,4.4,0,0,0,0-.86c-.1-.72-.1-1.43.73-1.67s1.74-.52,2.5.22a8.6,8.6,0,0,1,2.46,3.29c.23.69.8.89,1.48,1C23.59,41.4,23.86,41.8,23.76,43.22Z"/><path class="cls-5" d="M22.13,39.75c.3-.79.85-1.15,1.35-1a5.59,5.59,0,0,0,3.74-.39l1.9,2.09-1,2.8a2.92,2.92,0,0,1-3.38-1A29.6,29.6,0,0,0,22.13,39.75Z"/><path class="cls-5" d="M39.24,36.68c-.21.8-.14,1,.31,1.17s.91.4.8,1c-.74.55-1.29.44-2.09-.29a2.15,2.15,0,0,1-.49-3c.54-.92,1.35-.47,2.5-.11.12.64.47.49.63,1.34Z"/><path class="cls-5" d="M38.52,41c-.27.06-.63.27-.81.16-.62-.37-1.06.8-1.43,1.24l-1-1.11c-.39-1,.07-1.88.73-2.88,1.12,1,1.35.79,2.26,1.8C38.21,40.31,38.58,40.86,38.52,41Z"/><path class="cls-5" d="M33.56,44l-.9-.75c-1,.49-1.68-.33-2.42-.77l1.53-3.41c1.11.28,1.14.34,1.26,1.83C34.2,41.82,33.66,43,33.56,44Z"/><path class="cls-5" d="M42.14,35.22c-.23-.26-.58-.47-.69-.77-.33-.94-1-1.06-1.84-.93-.6-.87-.5-1.24.37-1.61.52-.23,1-.5,1.57-.78.29.5.21,1.09.6,1.76-.07.69.28,1.48.21,2.26Z"/><line class="cls-4" x1="33.88" y1="35.84" x2="34.77" y2="49"/><line class="cls-4" x1="21.89" y1="17.8" x2="22.39" y2="29.75"/></g><path class="cls-6" d="M24.5,1.5a23,23,0,1,1-23,23,23,23,0,0,1,23-23m0-1a24,24,0,1,0,24,24,24,24,0,0,0-24-24Z"/></g></svg>