<svg xmlns="http://www.w3.org/2000/svg" xmlns:xlink="http://www.w3.org/1999/xlink" viewBox="0 0 49 49"><defs><style>.cls-1{fill:none;}.cls-2{clip-path:url(#clip-path);}.cls-3{fill:#1e1d19;}</style><clipPath id="clip-path"><circle class="cls-1" cx="24.5" cy="24.5" r="24"/></clipPath></defs><g id="Gallery"><g class="cls-2"><path class="cls-3" d="M50.56,11.16H12.81a.6.6,0,0,0-.6.6h0V39.7a.6.6,0,0,0,.6.6H50.56a.6.6,0,0,0,.6-.6h0V11.76a.6.6,0,0,0-.6-.6ZM50,39.1H13.41V12.36H50Z"/><path class="cls-3" d="M15.38,38.07H48a.6.6,0,0,0,.6-.6h0V14a.6.6,0,0,0-.6-.6H15.38a.6.6,0,0,0-.6.6h0V37.47a.6.6,0,0,0,.6.6Zm32-23.48v14.6L42.47,24.9a3.38,3.38,0,0,0-4.42-.06l-6.84,5.67a2.21,2.21,0,0,1-2.56.19l-4.54-2.76a3.42,3.42,0,0,0-4.06.38L16,32V14.59Z"/><path class="cls-3" d="M22.12,24.37a3.86,3.86,0,1,0-3.86-3.86h0A3.86,3.86,0,0,0,22.12,24.37Zm0-6.52a2.66,2.66,0,1,1-2.66,2.66A2.66,2.66,0,0,1,22.12,17.85Z"/></g><path class="cls-3" d="M24.5,1.5a23,23,0,1,1-23,23,23,23,0,0,1,23-23m0-1a24,24,0,1,0,24,24,24,24,0,0,0-24-24Z"/></g></svg>