<svg xmlns="http://www.w3.org/2000/svg" xmlns:xlink="http://www.w3.org/1999/xlink" viewBox="0 0 49 49"><defs><style>.cls-1{fill:none;}.cls-2{fill:#fff;}.cls-3{clip-path:url(#clip-path);}.cls-4{fill:#1e1d19;}</style><clipPath id="clip-path"><circle class="cls-1" cx="24.5" cy="24.5" r="23.8"/></clipPath></defs><g id="Gaming"><circle class="cls-2" cx="24.5" cy="24.5" r="23.8"/><g class="cls-3"><g id="aCKsXX.tif"><path class="cls-4" d="M32.5.73a5.44,5.44,0,0,1,3,.36c4.34,1.94,8.62,4,12.94,6a1.54,1.54,0,0,1,1.07,1.72c-.18,3.8-.27,7.6-.42,11.4q-.56,14.52-1.19,29A1.9,1.9,0,0,1,47,50.69q-9.28,4-18.64,7.78a2,2,0,0,1-1.69-.29c-3.16-2.62-6.24-5.34-9.38-8-1.08-.92-.88-2-.36-3s1.24-1.85,1.79-2.82a3.27,3.27,0,0,0,.42-1.55c0-2.54-.28-5.07-.23-7.6.06-2.77-.37-5.2-3-6.69a.83.83,0,0,1-.22-.2,1.69,1.69,0,0,1,.84-2.77c1.31-.39,2.61-.83,3.94-1.11A1.82,1.82,0,0,0,22,22.74c.55-3.09,1.18-6.17,1.78-9.25.48-2.45.47-2.41-1.81-3.5-.54-.27-1.25-.86-1.3-1.35-.16-1.76-.06-3.54-.06-5.48C24.67,2.32,28.57,1.44,32.5.73ZM26.94,11.79a1.31,1.31,0,0,0-.92.85c-.67,3.32-1.26,6.65-1.9,10.16l9.41,2.32,2.61-13.37C32.89,11.75,29.91,11.73,26.94,11.79Z"/></g></g><circle class="cls-2" cx="23.34" cy="24.31" r="1.16"/><ellipse class="cls-2" cx="26.49" cy="26" rx="0.86" ry="0.38"/><ellipse class="cls-2" cx="28.33" cy="26.58" rx="0.86" ry="0.38"/><ellipse class="cls-2" cx="26.17" cy="27.12" rx="0.86" ry="0.38"/><ellipse class="cls-2" cx="28.02" cy="27.7" rx="0.86" ry="0.38"/><rect class="cls-2" x="23.03" y="25.36" width="0.63" height="1.65"/><path class="cls-4" d="M24.5,1.5a23,23,0,1,1-23,23,23,23,0,0,1,23-23m0-1a24,24,0,1,0,24,24,24,24,0,0,0-24-24Z"/></g></svg>