<svg xmlns="http://www.w3.org/2000/svg" xmlns:xlink="http://www.w3.org/1999/xlink" viewBox="0 0 49 49"><defs><style>.cls-1,.cls-6,.cls-9{fill:none;}.cls-2{fill:#fff;}.cls-3{clip-path:url(#clip-path);}.cls-4{fill:#e1e0db;}.cls-5,.cls-7,.cls-8{fill:#1e1d19;}.cls-6,.cls-7,.cls-8,.cls-9{stroke:#1e1d19;stroke-miterlimit:10;}.cls-6{stroke-width:0.88px;}.cls-7,.cls-9{stroke-width:0.81px;}.cls-8{stroke-width:0.92px;}</style><clipPath id="clip-path"><circle class="cls-1" cx="24.5" cy="24.5" r="23.8"/></clipPath></defs><g id="General_Store" data-name="General Store"><circle class="cls-2" cx="24.5" cy="24.5" r="23.8"/><g class="cls-3"><path class="cls-4" d="M18.14,28.63h13.5a2.08,2.08,0,0,1,2.08,2.08V49.9a0,0,0,0,1,0,0H16.06a0,0,0,0,1,0,0V30.71A2.08,2.08,0,0,1,18.14,28.63Z"/></g><g class="cls-3"><polygon class="cls-5" points="45.19 22.09 3.63 22.09 2.71 17.01 2.62 11.89 46.38 11.89 46.13 17.75 45.19 22.09"/><rect class="cls-5" x="3.69" y="12.76" width="41.61" height="37.44"/><rect class="cls-2" x="27.36" y="30.37" width="6.87" height="10.01"/><line class="cls-6" x1="26.58" y1="35.37" x2="34.97" y2="35.37"/><line class="cls-6" x1="30.77" y1="29.37" x2="30.77" y2="41.37"/><rect class="cls-2" x="24.22" y="23.54" width="18.2" height="4.18" rx="0.6"/><path class="cls-2" d="M11,23.07h9a2,2,0,0,1,2,2V50.62a0,0,0,0,1,0,0H8.92a0,0,0,0,1,0,0V25.11A2,2,0,0,1,11,23.07Z"/><path class="cls-2" d="M11.69,16.8a4.16,4.16,0,1,1-8.32,0c0-2.3,1.86-.87,4.16-.87S11.69,14.5,11.69,16.8Z"/><path class="cls-2" d="M20,16.8a4.16,4.16,0,1,1-8.32,0c0-2.3,1.86-.87,4.16-.87S20,14.5,20,16.8Z"/><path class="cls-2" d="M28.32,16.8a4.16,4.16,0,1,1-8.31,0c0-2.3,1.86-.87,4.15-.87S28.32,14.5,28.32,16.8Z"/><path class="cls-2" d="M36.64,16.8a4.16,4.16,0,0,1-8.32,0c0-2.3,1.86-.87,4.16-.87S36.64,14.5,36.64,16.8Z"/><path class="cls-2" d="M45,16.8a4.16,4.16,0,0,1-8.32,0c0-2.3,1.86-.87,4.16-.87S45,14.5,45,16.8Z"/><rect class="cls-2" x="3.39" y="12.94" width="41.57" height="3.86"/><polyline class="cls-7" points="11.69 20.02 11.69 12.94 14.41 4.91"/><line class="cls-7" x1="19.99" y1="20.02" x2="19.99" y2="12.94"/><line class="cls-7" x1="36.59" y1="20.02" x2="36.59" y2="12.2"/><path class="cls-5" d="M40.24,5.62l4.41,5.44H4.16L7.83,5.62H40.24m.39-.82H7.39L2.62,11.89H46.38L40.63,4.8Z"/><polyline class="cls-7" points="28.29 20.02 28.29 11.89 27.36 4.91"/><rect class="cls-8" x="7.93" y="3.23" width="6.48" height="1.68"/><rect class="cls-8" x="14.41" y="3.23" width="6.48" height="1.68"/><rect class="cls-8" x="20.88" y="3.23" width="6.48" height="1.68"/><rect class="cls-8" x="27.36" y="3.23" width="6.48" height="1.68"/><rect class="cls-8" x="33.83" y="3.23" width="6.48" height="1.68"/><line class="cls-7" x1="20.09" y1="11.89" x2="20.88" y2="4.91"/><line class="cls-9" x1="36.59" y1="12.2" x2="33.83" y2="4.91"/></g><path class="cls-5" d="M24.5,1.5a23,23,0,1,1-23,23,23,23,0,0,1,23-23m0-1a24,24,0,1,0,24,24,24,24,0,0,0-24-24Z"/></g></svg>