<svg xmlns="http://www.w3.org/2000/svg" viewBox="0 0 49 49"><defs><style>.cls-1{fill:#1e1d19;}</style></defs><g id="Golf"><g id="PVkO5q.tif"><path class="cls-1" d="M24.52,33.42A14.37,14.37,0,1,1,38.87,19,14.39,14.39,0,0,1,24.52,33.42ZM12.09,19.08c.12.88.19,1.78.37,2.66a7,7,0,0,0,2.45,4.37c.87.67,1.34.48,1.51-.58a1.35,1.35,0,0,1,1.69-1.31,4.39,4.39,0,0,1,1.44.49c.81.45,1.12.38,1.5-.5a2.34,2.34,0,0,1,2.62-1.6,16.33,16.33,0,0,1,2,.32.79.79,0,0,0,1.07-.68,3.36,3.36,0,0,1,1.41-2c.81-.56.84-.87.16-1.62a2.94,2.94,0,0,1,.33-4.56.77.77,0,0,0,0-1.26,10.37,10.37,0,0,1-.94-1.05c-.86-1.25-.56-2.07.87-2.59.31-.12.76-.46.76-.7s-.34-.67-.59-1c-.1-.13-.33-.16-.52-.22A12.42,12.42,0,0,0,12.09,19.08Zm20.36-1.22c-.22-.67-.34-1.19-.55-1.67a1.28,1.28,0,0,0-1.39-.91,1.58,1.58,0,0,0-1.25,1.3A2.94,2.94,0,0,0,29.91,19a1.09,1.09,0,0,0,1.69.17A6.57,6.57,0,0,0,32.45,17.86ZM28,24a1.09,1.09,0,0,0,1.52,1.1,3.44,3.44,0,0,0,2.11-2.33,1.08,1.08,0,0,0-1.33-1.47A3.28,3.28,0,0,0,28,24Zm-3,.52a2.58,2.58,0,0,0-2.17,1,1.27,1.27,0,0,0-.12,1.4,1,1,0,0,0,1.16.47,7.5,7.5,0,0,0,1.87-.57c.79-.39,1.06-.93.91-1.45a1.63,1.63,0,0,0-1.52-.88Zm5.64-14c-.84,0-1.37.62-1,1.41a5.68,5.68,0,0,0,1.35,1.81c.49.46,1.23.13,1.49-.54A2.34,2.34,0,0,0,30.58,10.54ZM20,28.45a5,5,0,0,0,.82-.17c.7-.26.81-.83.24-1.33a3.33,3.33,0,0,0-2.35-1c-.34,0-.88.22-.95.44a1.61,1.61,0,0,0,.2,1.23A2.28,2.28,0,0,0,20,28.45Zm15.5-8.67-.66-1.12c-.35.21-.85.35-1,.65a6.36,6.36,0,0,0-.49,1.94.89.89,0,0,0,.44.68.78.78,0,0,0,.7-.27C34.89,21.09,35.17,20.45,35.52,19.78Zm-7.71,9.37a3.46,3.46,0,0,0,2.48-1.37.74.74,0,0,0,.12-.63.71.71,0,0,0-.58-.26,3.3,3.3,0,0,0-2.41,1.39.68.68,0,0,0-.08.58C27.43,29,27.69,29.09,27.81,29.15Zm8-13.8a13,13,0,0,0-.49-1.49.68.68,0,0,0-.51-.36.68.68,0,0,0-.4.48,5,5,0,0,0,0,1.44c.09.41.22,1,.77.89C35.47,16.26,35.61,15.67,35.79,15.35Zm-1,9.54c0-.09-.07-.27-.16-.32a.5.5,0,0,0-.41.05,3.17,3.17,0,0,0-1.3,2A.42.42,0,0,0,33,27a.5.5,0,0,0,.4-.07A3.49,3.49,0,0,0,34.79,24.89ZM24.53,30.22c-.59.14-1,.21-1.46.34-.15.05-.26.25-.39.38.14.11.27.3.42.32a4.29,4.29,0,0,0,1.38,0,4.06,4.06,0,0,0,1.1-.59ZM31.35,8.86a2.83,2.83,0,0,0,2.42,1.91A2.69,2.69,0,0,0,31.35,8.86ZM19.78,30.49a2.58,2.58,0,0,0-2.47-1.38A2.81,2.81,0,0,0,19.78,30.49Z"/><path class="cls-1" d="M26.65,17.26c-.2,0-.4,0-.59-.08a3.11,3.11,0,0,0-3.76,2.94,1.87,1.87,0,0,1-.22.58,2.07,2.07,0,0,1-.39-.45,3.06,3.06,0,0,1,4.62-3.67,3.11,3.11,0,0,1,.44.52Z"/><path class="cls-1" d="M17.09,22a2.29,2.29,0,0,1,1.08-3.36,2.6,2.6,0,0,1,3,1.33,1,1,0,0,1,0,.41,1.35,1.35,0,0,1-.35-.06c-.28-.11-.53-.28-.81-.36a2.07,2.07,0,0,0-2.56,1.36C17.31,21.56,17.2,21.77,17.09,22Z"/><path class="cls-1" d="M25.29,10.73a1.17,1.17,0,0,1,.29,0c.24.09.48.2.72.3a3.38,3.38,0,0,1-.64.36,2.65,2.65,0,0,0-2.16,2.11,4.44,4.44,0,0,0,.1,1,2.28,2.28,0,0,1-.05.44,1.49,1.49,0,0,1-.39-.12,2,2,0,0,1-.48-2.81A3.13,3.13,0,0,1,25.29,10.73Z"/><path class="cls-1" d="M16.1,24.82l-.39-.57a16,16,0,0,0-1.17-1.74c-.23-.27-.69-.35-1-.53a1.35,1.35,0,0,1-.41-.38.41.41,0,0,1,0-.31c.13-.38.28-.75.43-1.12a3.44,3.44,0,0,1,1,.49,6.61,6.61,0,0,1,1.71,3.45,1.61,1.61,0,0,1,0,.38C16.27,24.55,16.22,24.6,16.1,24.82Z"/><path class="cls-1" d="M26.1,9.78c-1-.29-1.91-.55-2.83-.91a1.05,1.05,0,0,1-.55-.81c0-.22.43-.45.71-.62a1.31,1.31,0,0,1,.68-.15c.12,0,.36.2.35.29-.09.61.34.85.76,1.05s.8.29,1.19.45a2.63,2.63,0,0,1,.44.3l-.51.26a.6.6,0,0,1-.19,0Z"/></g><path class="cls-1" d="M29.77,33.84c-3.72,1.59-8,1.22-10.54-.42,0,3.19,3.4,5.6,3.4,10.43v4.42c.5,0,1,0,1.51,0,.83,0,1.66,0,2.47-.12V43.68C26.61,40.68,29.65,37.39,29.77,33.84Z"/><path class="cls-1" d="M24.5,1.5a23,23,0,1,1-23,23,23,23,0,0,1,23-23m0-1a24,24,0,1,0,24,24,24,24,0,0,0-24-24Z"/></g></svg>