<svg xmlns="http://www.w3.org/2000/svg" xmlns:xlink="http://www.w3.org/1999/xlink" viewBox="0 0 49 49"><defs><style>.cls-1,.cls-5{fill:none;}.cls-2{clip-path:url(#clip-path);}.cls-3{fill:#1e1d19;}.cls-4{fill:#fff;}.cls-5{stroke:#1e1d19;stroke-miterlimit:10;}</style><clipPath id="clip-path"><circle class="cls-1" cx="24.5" cy="24.5" r="24"/></clipPath></defs><g id="Line_Spooling" data-name="Line Spooling"><g class="cls-2"><circle class="cls-1" cx="24.52" cy="24.48" r="23.8"/><circle class="cls-3" cx="7.31" cy="30.11" r="8.77"/><circle class="cls-4" cx="7.31" cy="30.11" r="3.11"/><line class="cls-5" x1="11.54" y1="36.8" x2="26.97" y2="28.36"/><g id="_6Fpm5B.tif" data-name="6Fpm5B.tif"><path class="cls-3" d="M38.67,11.6c-.09.23-.19.46-.27.69a1.1,1.1,0,0,0,.14,1.08L39.61,15a.8.8,0,0,1,0,1.1c-.57.83-1.17,1.64-1.71,2.48a2.64,2.64,0,0,0-.39,1.11c-.09,1.11-.1,2.23-.14,3.35,0,.16,0,.32,0,.48a.62.62,0,0,1-.79.57,1.13,1.13,0,0,0-1.07.32l-3.9,3.9-2.11,2,1,1c1-3.09,5.33-4.67,6.73-2.9a2.14,2.14,0,0,1-.2,2.5c-.28.32-1.09.82-1.65,1.36-1.29,1.22-1.72,2.64-1.56,2.64.85,0,.73.29,1.41.78s.72.36,1.24-.07c1.38-1.14,2.76-2.29,4.15-3.42A1.08,1.08,0,0,0,41,31c-.25-1.12-.53-2.25-.7-3.38s-.21-2.23-.3-3.35c-.11-1.4-.21-2.8-.33-4.2a3,3,0,0,1,.25-1.57c.26-.54.49-1.11.74-1.66s.38-.47.79-.24l2,1.17a2,2,0,0,0,2-.09v-.2c-.07-.06-.15-.11-.21-.17L38.94,11.6Z"/><path class="cls-3" d="M25.08,45.42a6.17,6.17,0,0,1-2.23-3.17,2.54,2.54,0,0,1-.16-1.16c0-.45.35-.64.76-.47a1.61,1.61,0,0,1,.46.26A6.19,6.19,0,0,1,26,44.53a1.53,1.53,0,0,1,0,.37c0,.45-.18.61-.61.64Z"/><path class="cls-3" d="M28.91,17.82a.65.65,0,0,0-.94,0,.91.91,0,0,1-.94.31,4,4,0,0,0-4.46,4.62.66.66,0,0,1-.14.44,3.49,3.49,0,0,1-.43.43.49.49,0,0,0,0,.76c.92.95,3.24,3.2,4.66,4.58A1.72,1.72,0,0,0,29,29s.74-.49.83-.59c.73-.72,2.37-2.36,3.52-3.52a1.8,1.8,0,0,0,0-2.55Z"/><path class="cls-3" d="M26.58,43.09l-1-1.8c.79-.5,1.55-1,2.36-1.51a3.81,3.81,0,0,0,1.72-2c.95-2.32,2-4.61,3-6.91A3.69,3.69,0,0,1,34.8,28.8a1,1,0,0,1,1.28.57,1,1,0,0,1-.5,1.33,2,2,0,0,0-1.11,1c-.29.69-.59,1.38-.89,2.08-.81,1.89-1.61,3.78-2.43,5.67A3.79,3.79,0,0,1,29.82,41C28.76,41.7,27.67,42.38,26.58,43.09Z"/><path class="cls-3" d="M30.47,17l-.37.4.91.73c.11-.12.31-.33.48-.55a1,1,0,0,0-.24-1.43,7.4,7.4,0,0,0-3.08-1.34,7.63,7.63,0,0,0-8.81,5.38,7.51,7.51,0,0,0,1.08,6.54,1,1,0,0,0,1.73.18,3.47,3.47,0,0,1,.41-.33l-.83-.81-.38.32A6.53,6.53,0,0,1,30.47,17Z"/></g><path class="cls-3" d="M50.07,17.08,29.55-.72,24.8,0,23.29.24s5.46,5.15,7.56,6.9C32.49,8.51,36.37,12.34,38,14a1.23,1.23,0,0,0,1.6.11l.15-.11,3,2.76-.07.06a.53.53,0,0,0,0,.83l7.16,6.17.25-.24Z"/></g><path class="cls-3" d="M24.5,1.5a23,23,0,1,1-23,23,23,23,0,0,1,23-23m0-1a24,24,0,1,0,24,24,24,24,0,0,0-24-24Z"/></g></svg>