<svg xmlns="http://www.w3.org/2000/svg" xmlns:xlink="http://www.w3.org/1999/xlink" viewBox="0 0 49 49"><defs><style>.cls-1{fill:none;}.cls-2{clip-path:url(#clip-path);}.cls-3{fill:#1e1d19;}</style><clipPath id="clip-path"><circle class="cls-1" cx="24.5" cy="24.5" r="23.8"/></clipPath></defs><g id="Mountain_Exhibit" data-name="Mountain Exhibit"><circle class="cls-1" cx="24.5" cy="24.5" r="23.8"/><g class="cls-2"><g id="NHHRQM.tif"><path class="cls-3" d="M16.83,45.24a4.13,4.13,0,0,1,1.65-1.34,14.26,14.26,0,0,1,4.12-1.36,6.19,6.19,0,0,0,.89-.23L22.74,42c-.72-.33-1.46-.64-2.16-1a2.94,2.94,0,0,1-1.38-1.36,4.43,4.43,0,0,0-.49-.65,3,3,0,0,1-2.48-1.14c-.43-.67-1.07-1.3-.79-2.35.27-.53.89-.69,1.49-.87.64.16,1.28.33,1.92.45.34.07.73.16,1-.31l.45.27c.47-.09.53-.58.89-.9l.58,0,.05.94.69-.54c-.33-.52-.67-1.11-1.07-1.65a3.67,3.67,0,0,1-.7-2c.53-1.06,1.47-2,1.81-3.35l-1.9-1.4-.08.08L20,25.11l-.65-.61c-.5,0-.95,0-1.41,0-.08,0-.16-.13-.24-.19.49-1.33.49-1.34-.73-2.18a1.71,1.71,0,0,1-.79-1.54c0-.27,0-.55,0-.82a.77.77,0,0,0-.63-.91,4.85,4.85,0,0,1-.38-3.34,11.33,11.33,0,0,1-.31-1.1A1.43,1.43,0,0,0,14,13.33v-.74l.54-.32-.38-1.22.52-.48a3.93,3.93,0,0,1,1.84.14c.55.07,1.11.06,1.68.08l.51-1.25c-1.26-1.65-1.52-2.86-.54-4.06l.54-.17-.14.75.39,0,.2,2.32c.4.27.54.78,1.15.71a3.13,3.13,0,0,1,1.14-3.21c-.09.65-.22,1.29-.27,1.94a3.69,3.69,0,0,0,.27,2l.42.24c.39-.07.51-.34.61-.64a12.66,12.66,0,0,1,.69-1.84,6.26,6.26,0,0,1,2.48-2.74c.26.27.1.43,0,.6-.36.42-.72.83-1.07,1.25a4.21,4.21,0,0,0-.81,2.38,1.25,1.25,0,0,0,1,.39c.43,0,.87.08,1.3.09A2.47,2.47,0,0,0,27.75,9a4.36,4.36,0,0,1,2.13-.9c-.22.58-.77.76-1.15,1.11s-.74.72-1.07,1.05a.92.92,0,0,0,.79.84L29,9.9c.1.24.19.35.17.44-.1.42-.24.84-.37,1.29l1,1.34-.51.39-.81-.93L28,13.51c.68.64,1.39.42,2.29.15L34,9.78l.35.3-2.85,3.77a1.27,1.27,0,0,0,.85.55,9,9,0,0,1,4-1.24c-.67.34-1.21.6-1.72.89s-1.07.66-1.62,1c.42,1.25,1.69,1.54,2.5,2.34a.46.46,0,0,1-.63.14A6.22,6.22,0,0,1,32.54,16a3.51,3.51,0,0,0-3-1.23A10.15,10.15,0,0,1,26,14.48a4.54,4.54,0,0,1-1.66-.86,18.08,18.08,0,0,0-1.56-1.21,5,5,0,0,0-.93-.37c-.29.23-.86.19-.86.85l2.12,1.46c-.1.42-.49.35-.73.54a10.49,10.49,0,0,0,2.9,1c.37.08.75.15,1.12.25a3.34,3.34,0,0,1,1.74,1q.58.69,1.2,1.35a1.4,1.4,0,0,0,.37.32,11.94,11.94,0,0,0,4.15,1.72,11.52,11.52,0,0,1,2,.61,5,5,0,0,1,1.7,1c.58.5,1.25.88,1.86,1.34a2.49,2.49,0,0,1,1,2c0,1.2-.1,2.41-.16,3.61a.93.93,0,0,1-.12.39,3.14,3.14,0,0,0,.26,3.27c.32.57.74,1.08,1.1,1.64a1.49,1.49,0,0,1,.24.6,25.39,25.39,0,0,0,1,4.4,8.82,8.82,0,0,0,.45,1.13L44,40.1c.66,0,1.32.39,2.07,0l.22,1.55L46,42c.2.17.37.44.6.5a5.29,5.29,0,0,1,1.81,1.12,2.07,2.07,0,0,1,.88,1.77c0,.74,0,1.49,0,2.23a1.88,1.88,0,0,1-1,1.86,10,10,0,0,1-3,1.4,18.64,18.64,0,0,1-3.79.63c-1.67.06-3.34.18-5,.33s-3.49.3-5.25.33a29.15,29.15,0,0,0-3.37.18,27.93,27.93,0,0,1-3.54.13,15.33,15.33,0,0,1-4.84-.78,3.51,3.51,0,0,1-.95-.47,7.39,7.39,0,0,1-1.35-1.07,3,3,0,0,1-.62-1.75,2.25,2.25,0,0,1,0-.58C16.64,46.93,16.75,46,16.83,45.24ZM35.37,32l.21,1.13a1.88,1.88,0,0,1-1.21.94c-.66.15-1.32.33-2,.5a3.44,3.44,0,0,1,2.18.79,1,1,0,0,1-1,.24c-.21,0-.42,0-.63,0-.63-.05-1.06.41-1.65.54.24.37.47.56.86.4,0,0,.07.06.13.12l-.18.6a7.26,7.26,0,0,0,2.17.69c.92.29,1.57.91,2.44,1a1.66,1.66,0,0,1,.46.19l2.67,1.27A2.66,2.66,0,0,0,41.42,40a15.3,15.3,0,0,0-3.71-6A7.68,7.68,0,0,0,35.37,32ZM25.08,29c.08,1.42.17,2.78.23,4.14A1.4,1.4,0,0,0,26,34.47c.49-.24,1-.51,1.55-.76a3.91,3.91,0,0,1,.68-.24c.26-.08.53-.11.79-.2l2.2-.75.23.44c.59-.21.59-.21,1-1l-.55-1.83A11.18,11.18,0,0,1,25.08,29Zm2.77-17A4.07,4.07,0,0,0,24,10.56l-.61.86a8.27,8.27,0,0,0,3,2.05C27.14,13.27,27.36,12.56,27.85,12.05ZM24,34.2a10.07,10.07,0,0,0-.76-3.5,1.69,1.69,0,0,0-.56,1.39A7,7,0,0,0,24,34.2Z"/></g></g><path class="cls-3" d="M24.5,1.5a23,23,0,1,1-23,23,23,23,0,0,1,23-23m0-1a24,24,0,1,0,24,24,24,24,0,0,0-24-24Z"/></g></svg>