<svg xmlns="http://www.w3.org/2000/svg" xmlns:xlink="http://www.w3.org/1999/xlink" viewBox="0 0 49 49"><defs><style>.cls-1{fill:none;}.cls-2{clip-path:url(#clip-path);}.cls-3,.cls-4,.cls-6{fill:#1e1d19;}.cls-3{stroke:#fff;}.cls-3,.cls-4,.cls-5{stroke-linecap:round;stroke-linejoin:round;stroke-width:1.22px;}.cls-4,.cls-5{stroke:#1e1d19;}.cls-5{fill:#fff;}</style><clipPath id="clip-path"><circle class="cls-1" cx="-51.3" cy="24.23" r="23.8"/></clipPath></defs><g id="Boat_Service" data-name="Boat Service"><g class="cls-2"><path class="cls-3" d="M-63.88,33.12S-53,41.17-38.64,40.6,1.29,31.77,1.29,31.77L1,29.05-56.48,31.6Z"/><path class="cls-4" d="M-63.88,32.36s10.84,8,25.24,7.48S1.29,31,1.29,31L1,28.29l-57.52,2.55Z"/><path class="cls-5" d="M-14.35,20s-42.82,1.18-49.53,12.37c0,0,25,2.48,65.51-4.16Z"/></g></g><g id="Museum"><circle class="cls-1" cx="24.5" cy="24.5" r="23.8"/><g id="E0wmrI.tif"><path class="cls-6" d="M18.93,24a.34.34,0,0,0-.12.06l-1.16.9a2.71,2.71,0,0,1-.41.23c-.07,0-.11,0-.13-.05a1,1,0,0,1,0-.24c0-.1,0-.21,0-.31a.38.38,0,0,1,0-.1l-.49.19a2.71,2.71,0,0,0-.79.5,2.09,2.09,0,0,0-.24.28.68.68,0,0,0,.06.79v0a.81.81,0,0,1,.15-.62,1.93,1.93,0,0,1,.47-.43h0a.78.78,0,0,0,.29.67,1.58,1.58,0,0,0,.56.36s0,0,0,0a5.27,5.27,0,0,1,1.17-.93l.37-.19s.08,0,.1,0a1.51,1.51,0,0,1,.17.61,3,3,0,0,1,0,.52,3.57,3.57,0,0,1-.19.86,3.25,3.25,0,0,0-.15,1.42c0,.15.07.3.1.45s0,0,0,0l-.28-.13a5.57,5.57,0,0,1-1.34-1,.1.1,0,0,0-.07,0,17.06,17.06,0,0,1-2.4-.94l0,0-.1.28-.2.47a.05.05,0,0,1,0,0c0,.11-.13.12-.22,0a1.27,1.27,0,0,1-.26-.43,3.6,3.6,0,0,1-.27-1,.13.13,0,0,0,0-.09,3.12,3.12,0,0,1-.4-.32,2,2,0,0,1-.42-.73,5,5,0,0,1-.25-2.28,2.9,2.9,0,0,1,.46-1.33,2,2,0,0,1,.38-.38.34.34,0,0,0,.08-.09l.33-.66a.05.05,0,0,1,.06,0c.17,0,.25-.07.25-.24v-.18l.14,0a.21.21,0,0,0,.23-.22v-.29l.18,0c.23,0,.34-.06.32-.28v-.27l.27,0,.26,0a.21.21,0,0,0,.24-.23c0-.11,0-.23,0-.35v-.07l.36.18a7.06,7.06,0,0,1,1,.68.1.1,0,0,0,.09,0,8,8,0,0,1,1.46-.22,10.21,10.21,0,0,1,1.83.09l1,.13a1.56,1.56,0,0,0,.57,0,.72.72,0,0,1,.83.49,1.85,1.85,0,0,1,.09.7c0,.2,0,.4,0,.6a3.69,3.69,0,0,0,0,.94.29.29,0,0,0,0,.09.23.23,0,0,0,.21.21.89.89,0,0,1,.37.14.15.15,0,0,1,0,.24.7.7,0,0,1-.17.13l-.41.16-.28.11-.44.14Z"/></g><g id="AeyJBx.tif"><path class="cls-6" d="M10.75,24.77c.07,2,0,4.09,0,6.22H36.73V15.56H10.78c0,1.52.05,3,0,4.44ZM9.39,20c-.1-1.47,0-3-.05-4.43,0-1.12.41-1.52,1.51-1.51,3.58,0,7.16,0,10.77,0a2.13,2.13,0,0,0-.49-2.46,3.4,3.4,0,0,1,.25-5,3.51,3.51,0,0,1,4.92,0,3.58,3.58,0,0,1,.24,5,12.87,12.87,0,0,0-1.08,2.3c.92,0,1.42.09,1.92.09,3.11,0,6.21,0,9.31,0,1.14,0,1.63.34,1.62,1.55q-.06,7.72,0,15.46c0,1.1-.39,1.52-1.51,1.5-3.58-.05-7.16,0-10.85,0V37c1.13,0,2.25,0,3.38,0a1.35,1.35,0,0,1,1.57,1.11c.25.92.64,1.8.84,2.73a5.12,5.12,0,0,1-.17,1.47H16.09a7,7,0,0,1,.05-2.15c1.23-3.69.29-3.09,4.19-3.15h1.38V32.51c-3.44,0-6.86,0-10.28,0-2.07,0-2.08,0-2.08-2s0-3.82,0-5.73Z"/><path class="cls-6" d="M29.15,18.86c1.38,0,2.76,0,4.14,0,1.05-.05,1.41.39,1.44,1.42.07,2.7.1,2.7-2.56,2.7-2.38,0-2.44-.05-4.82,0-1.23,0-1.79-.37-1.64-1.63a5.43,5.43,0,0,0,0-1.14c-.07-1,.34-1.39,1.33-1.36C28.52,18.89,27.67,18.86,29.15,18.86Z"/><path class="cls-6" d="M30.07,28.78c-1.14,0-2.28.06-3.41,0-.34,0-.65-.48-1-.74.32-.21.64-.6,1-.61,2.33-.05,4.65-.05,7,0,.32,0,.64.39,1,.61-.32.26-.62.72-1,.74C32.45,28.84,31.26,28.78,30.07,28.78Z"/><path class="cls-6" d="M30,25.62c-1.13,0-2.28.05-3.41,0-.31,0-.6-.44-.9-.68.31-.23.6-.66.91-.66,2.37-.06,4.75-.06,7.12,0,.3,0,.59.44.88.68-.3.23-.58.64-.9.66C32.47,25.67,31.23,25.62,30,25.62Z"/></g><path class="cls-6" d="M24.5,1.5a23,23,0,1,1-23,23,23,23,0,0,1,23-23m0-1a24,24,0,1,0,24,24,24,24,0,0,0-24-24Z"/></g></svg>