<svg xmlns="http://www.w3.org/2000/svg" xmlns:xlink="http://www.w3.org/1999/xlink" viewBox="0 0 49 49"><defs><style>.cls-1,.cls-4{fill:none;}.cls-2{clip-path:url(#clip-path);}.cls-3{fill:#1e1d19;}.cls-4{stroke:#1e1d19;stroke-linejoin:round;stroke-width:1.86px;}.cls-5,.cls-6{fill:#fff;}.cls-5{stroke:#fff;stroke-miterlimit:10;stroke-width:0.18px;}</style><clipPath id="clip-path"><circle class="cls-1" cx="24.5" cy="24.5" r="23.8"/></clipPath></defs><g id="Offroad_Vehicles" data-name="Offroad Vehicles"><circle class="cls-1" cx="24.5" cy="24.5" r="23.8"/><g class="cls-2"><polygon class="cls-3" points="7.93 22.24 17.78 24.43 19.45 27.64 18.73 33.2 31.88 37.31 37.03 32.15 40.7 31.64 49.9 32.67 49.12 27.16 47.81 25.7 40.2 23.57 33.43 28.06 28.62 27.18 28.29 29.89 23.96 29.93 24.88 25.85 27.87 22.82 26.7 22.17 25.02 24.11 25.52 22.07 22.23 17.57 14.67 16.81 10.75 18.68 7.93 22.24"/><path class="cls-3" d="M36.12,20.16l-3.9,6.61-3.5-.19a.76.76,0,0,0-.8.88l.37,2.43s6.27-.11,6.44-.35,3.21-8.08,3.21-8.08l-.51-1.13A.78.78,0,0,0,36.12,20.16Z"/><polyline class="cls-4" points="34.67 28.25 44.21 18.04 41.04 11.87 28.45 11.85 18.65 19.72"/><ellipse class="cls-3" cx="27.39" cy="22.17" rx="0.78" ry="2.62" transform="matrix(0.94, -0.33, 0.33, 0.94, -5.83, 10.41)"/><polyline class="cls-4" points="43.62 29.81 42.36 37.7 32.66 31.76"/><polyline class="cls-4" points="16.18 22.03 11.14 30.95 22.34 31.68"/><circle class="cls-3" cx="11.38" cy="30.52" r="5.7"/><path class="cls-5" d="M9.68,28.5a3.05,3.05,0,0,1,2.2-.56A1.51,1.51,0,0,1,11,29C10.22,29.31,9.68,28.5,9.68,28.5Z"/><path class="cls-5" d="M8.94,31.51a3,3,0,0,1,.14-2.26,1.5,1.5,0,0,1,.76,1.19C9.88,31.25,8.94,31.51,8.94,31.51Z"/><path class="cls-5" d="M11.57,33.15a3,3,0,0,1-2.1-.84A1.49,1.49,0,0,1,10.83,32C11.61,32.17,11.57,33.15,11.57,33.15Z"/><path class="cls-5" d="M14,31.15a3.07,3.07,0,0,1-1.46,1.74,1.49,1.49,0,0,1,.09-1.4C13,30.81,14,31.15,14,31.15Z"/><path class="cls-5" d="M12.77,28.27A3,3,0,0,1,14,30.19a1.51,1.51,0,0,1-1.31-.51A1.22,1.22,0,0,1,12.77,28.27Z"/><circle class="cls-3" cx="41.94" cy="39.19" r="5.7"/><path class="cls-5" d="M40.23,37.18a3,3,0,0,1,2.21-.56,1.5,1.5,0,0,1-.9,1.08C40.78,38,40.23,37.18,40.23,37.18Z"/><path class="cls-5" d="M39.49,40.19a3.07,3.07,0,0,1,.15-2.27,1.5,1.5,0,0,1,.76,1.19C40.43,39.92,39.49,40.19,39.49,40.19Z"/><path class="cls-5" d="M42.13,41.83A3.07,3.07,0,0,1,40,41a1.5,1.5,0,0,1,1.37-.36C42.17,40.85,42.13,41.83,42.13,41.83Z"/><path class="cls-5" d="M44.5,39.82a3,3,0,0,1-1.45,1.75,1.51,1.51,0,0,1,.09-1.41C43.59,39.49,44.5,39.82,44.5,39.82Z"/><path class="cls-5" d="M43.33,37a3,3,0,0,1,1.21,1.92,1.49,1.49,0,0,1-1.31-.52C42.73,37.72,43.33,37,43.33,37Z"/><polygon class="cls-3" points="41.01 44.72 32.26 41.84 23.5 41.59 21.63 38.47 18.63 36.09 17.13 36.97 14.13 36.09 8.39 35.37 3.88 33.09 3.13 30.71 -1.62 30.71 1.63 37.73 7.33 47.47 14.26 51.34 26.02 52.46 33.76 49.47 41.01 44.72"/><polygon class="cls-3" points="39.46 33.95 39.6 33.39 40.69 33.09 41.29 33.44 40.79 34.16 39.46 33.95"/><polygon class="cls-3" points="37.84 35.09 37.78 34.51 38.71 33.86 39.38 33.99 39.16 34.83 37.84 35.09"/><polygon class="cls-3" points="36.71 36.71 36.46 36.2 37.1 35.26 37.78 35.15 37.87 36.02 36.71 36.71"/><polygon class="cls-3" points="36.21 38.63 35.79 38.23 36.08 37.13 36.68 36.79 37.05 37.58 36.21 38.63"/><polygon class="cls-3" points="36.39 40.6 35.86 40.37 35.75 39.24 36.2 38.71 36.82 39.33 36.39 40.6"/><polygon class="cls-3" points="37.23 42.39 36.65 42.35 36.17 41.33 36.41 40.68 37.2 41.05 37.23 42.39"/><polygon class="cls-3" points="38.63 43.78 38.08 43.95 37.27 43.15 37.28 42.46 38.15 42.53 38.63 43.78"/><polygon class="cls-3" points="40.43 44.62 39.97 44.96 38.93 44.48 38.7 43.83 39.55 43.6 40.43 44.62"/><polygon class="cls-3" points="42.4 44.78 42.08 45.26 40.95 45.17 40.51 44.63 41.23 44.13 42.4 44.78"/><polygon class="cls-3" points="44.31 44.26 44.18 44.83 43.08 45.12 42.49 44.77 42.98 44.05 44.31 44.26"/><polygon class="cls-3" points="45.93 43.12 45.99 43.7 45.07 44.35 44.39 44.22 44.61 43.38 45.93 43.12"/><polygon class="cls-3" points="47.06 41.5 47.32 42.01 46.67 42.95 45.99 43.06 45.91 42.19 47.06 41.5"/><polygon class="cls-3" points="47.57 39.58 47.98 39.98 47.69 41.08 47.09 41.42 46.72 40.63 47.57 39.58"/><polygon class="cls-3" points="47.39 37.61 47.92 37.84 48.02 38.97 47.57 39.5 46.95 38.88 47.39 37.61"/><polygon class="cls-3" points="46.55 35.82 47.12 35.86 47.6 36.88 47.36 37.53 46.57 37.16 46.55 35.82"/><polygon class="cls-3" points="45.14 34.42 45.7 34.26 46.5 35.06 46.49 35.75 45.62 35.68 45.14 34.42"/><polygon class="cls-3" points="43.34 33.59 43.81 33.25 44.84 33.73 45.07 34.38 44.23 34.61 43.34 33.59"/><polygon class="cls-3" points="41.37 33.43 41.69 32.95 42.82 33.04 43.26 33.58 42.55 34.08 41.37 33.43"/><polygon class="cls-6" points="11.47 19.24 9.38 21.67 10.95 22.09 12.52 19.53 11.47 19.24"/><polygon class="cls-3" points="8.96 25.36 9.09 24.8 10.19 24.5 10.78 24.85 10.28 25.57 8.96 25.36"/><polygon class="cls-3" points="7.34 26.5 7.27 25.93 8.2 25.27 8.88 25.4 8.66 26.24 7.34 26.5"/><polygon class="cls-3" points="6.21 28.13 5.95 27.61 6.6 26.68 7.28 26.56 7.36 27.43 6.21 28.13"/><polygon class="cls-3" points="5.7 30.04 5.28 29.64 5.57 28.54 6.17 28.2 6.55 28.99 5.7 30.04"/><polygon class="cls-3" points="5.88 32.01 5.35 31.78 5.25 30.65 5.7 30.13 6.32 30.74 5.88 32.01"/><polygon class="cls-3" points="6.72 33.8 6.15 33.77 5.66 32.74 5.91 32.09 6.7 32.46 6.72 33.8"/><polygon class="cls-3" points="8.13 35.2 7.57 35.36 6.77 34.56 6.78 33.87 7.64 33.94 8.13 35.2"/><polygon class="cls-3" points="9.93 36.03 9.46 36.37 8.43 35.89 8.2 35.24 9.04 35.01 9.93 36.03"/><polygon class="cls-3" points="11.9 36.19 11.58 36.67 10.45 36.58 10.01 36.05 10.72 35.54 11.9 36.19"/><polygon class="cls-3" points="13.81 35.67 13.67 36.24 12.57 36.53 11.98 36.18 12.48 35.47 13.81 35.67"/><polygon class="cls-3" points="15.43 34.53 15.49 35.11 14.56 35.76 13.88 35.64 14.11 34.79 15.43 34.53"/><polygon class="cls-3" points="16.55 32.91 16.81 33.43 16.16 34.36 15.48 34.47 15.4 33.6 16.55 32.91"/><polygon class="cls-3" points="17.06 30.99 17.48 31.39 17.19 32.49 16.59 32.83 16.22 32.04 17.06 30.99"/><polygon class="cls-3" points="16.88 29.02 17.41 29.25 17.51 30.39 17.07 30.91 16.45 30.29 16.88 29.02"/><polygon class="cls-3" points="16.04 27.23 16.62 27.27 17.1 28.3 16.86 28.94 16.06 28.58 16.04 27.23"/><polygon class="cls-3" points="14.63 25.84 15.19 25.67 15.99 26.48 15.99 27.16 15.12 27.09 14.63 25.84"/><polygon class="cls-3" points="12.84 25.01 13.3 24.66 14.33 25.14 14.56 25.79 13.72 26.02 12.84 25.01"/><polygon class="cls-3" points="10.87 24.84 11.19 24.36 12.32 24.45 12.76 24.99 12.04 25.49 10.87 24.84"/><path class="cls-6" d="M28.29,29.89c.43-.17.86-.31,1.29-.45l1.33-.18,2.65-.39-.17.11,1.55-2.23c.26-.37.51-.75.78-1.11s.63-.66,1-1c-.18.43-.38.84-.57,1.26s-.52.74-.77,1.12L33.8,29.26l-.06.09-.11,0L31,29.75l-1.33.2C29.2,29.94,28.75,29.93,28.29,29.89Z"/></g><path class="cls-3" d="M24.5,1.5a23,23,0,1,1-23,23,23,23,0,0,1,23-23m0-1a24,24,0,1,0,24,24,24,24,0,0,0-24-24Z"/></g></svg>