<svg xmlns="http://www.w3.org/2000/svg" xmlns:xlink="http://www.w3.org/1999/xlink" viewBox="0 0 49 49"><defs><style>.cls-1,.cls-6{fill:none;}.cls-2{clip-path:url(#clip-path);}.cls-3,.cls-5{fill:#1e1d19;}.cls-3,.cls-6{stroke:#1e1d19;}.cls-3{stroke-linecap:round;stroke-width:0.48px;}.cls-3,.cls-7{stroke-miterlimit:10;}.cls-4{clip-path:url(#clip-path-2);}.cls-6{stroke-linejoin:round;stroke-width:1.86px;}.cls-7,.cls-8{fill:#fff;}.cls-7{stroke:#fff;stroke-width:0.18px;}</style><clipPath id="clip-path"><circle class="cls-1" cx="24.5" cy="-51.5" r="24"/></clipPath><clipPath id="clip-path-2"><circle class="cls-1" cx="24.5" cy="24.5" r="24"/></clipPath></defs><g id="Archery_Services" data-name="Archery Services"><g class="cls-2"><line class="cls-3" x1="43.33" y1="-54.96" x2="42.71" y2="3.58"/></g></g><g id="Offroad_Service" data-name="Offroad Service"><g class="cls-4"><g id="cKswzw.tif"><path class="cls-5" d="M-21.52,42.16a19,19,0,0,0,1.35-1.62,8.94,8.94,0,0,0,.94-1.75,13.22,13.22,0,0,1,5.75-6.14c2.6-1.55,5.24-3,7.87-4.5,2.93-1.66,5.87-3.3,8.8-5,1.81-1,3.6-2.11,5.42-3.14a10.22,10.22,0,0,1,7.31-1.34c3.75.78,6.5-1.6,8-4a2.44,2.44,0,0,0,.12-.84,3.14,3.14,0,0,0-.81,0c-1.14.33-2.27.66-3.39,1a2.08,2.08,0,0,1-2.45-.68,4.43,4.43,0,0,1-1-3.72,2.18,2.18,0,0,1,1.82-2c1.2-.29,2.4-.55,3.6-.85a2.92,2.92,0,0,0,.7-.44c-.19-.24-.32-.6-.57-.71a12.43,12.43,0,0,0-5.7-1.3A3.51,3.51,0,0,0,13.25,7a11.86,11.86,0,0,0-1,1.74A13.67,13.67,0,0,1,6,15.4Q-5.07,21.74-16.21,28a9.2,9.2,0,0,1-6.63,1.11c-3.94-.85-6.7,1.63-8.1,3.87a2.26,2.26,0,0,0-.13,1,3.28,3.28,0,0,0,.83,0c1.16-.33,2.31-.68,3.45-1.07a2,2,0,0,1,2.05.45A4.43,4.43,0,0,1-23.62,38a2.19,2.19,0,0,1-1.7,1.27c-1.2.3-2.4.55-3.6.85a2.38,2.38,0,0,0-.65.4c.14.21.23.54.43.63,2.1,1,4.25,1.74,6.62,1.27a3.17,3.17,0,0,0,.5-.15l.4-.19Z"/></g><polygon class="cls-5" points="10.73 30.77 20.8 30.24 23.27 32.9 24.07 38.44 37.84 38.88 41.42 32.53 44.83 31.06 53.96 29.59 51.73 24.49 50.08 23.43 42.17 23.41 36.86 29.56 31.99 30 32.4 32.69 28.24 33.9 28.03 29.71 30.09 26 28.8 25.68 27.7 28 27.64 25.91 23.26 22.45 15.77 23.74 12.5 26.59 10.73 30.77"/><path class="cls-5" d="M37.34,21.22l-2,7.41-3.42.76a.76.76,0,0,0-.53,1.06l1,2.24s6-1.78,6.11-2.06.92-8.64.92-8.64L38.64,21A.77.77,0,0,0,37.34,21.22Z"/><polyline class="cls-6" points="38.1 29.41 44.56 17.02 39.86 11.92 27.72 15.27 20.38 25.48"/><ellipse class="cls-5" cx="29.46" cy="25.5" rx="0.78" ry="2.62" transform="translate(-9.3 21.53) rotate(-35.03)"/><polyline class="cls-6" points="47.15 28.51 48.04 38 37.1 34.28"/><polyline class="cls-6" points="18.62 28.37 16.15 38.31 27.14 36.01"/><circle class="cls-5" cx="16.27" cy="37.82" r="5.7"/><path class="cls-7" d="M14.09,36.34a3.05,3.05,0,0,1,2-1.13,1.49,1.49,0,0,1-.57,1.29A1.22,1.22,0,0,1,14.09,36.34Z"/><path class="cls-7" d="M14.18,39.44a3,3,0,0,1-.46-2.22,1.5,1.5,0,0,1,1,.94C15,38.93,14.18,39.44,14.18,39.44Z"/><path class="cls-7" d="M17.16,40.31a3,3,0,0,1-2.25-.25,1.48,1.48,0,0,1,1.21-.7C16.94,39.36,17.16,40.31,17.16,40.31Z"/><path class="cls-7" d="M18.91,37.75A3,3,0,0,1,18,39.82a1.5,1.5,0,0,1-.3-1.38C17.94,37.67,18.91,37.75,18.91,37.75Z"/><path class="cls-7" d="M17,35.29a3,3,0,0,1,1.68,1.53,1.49,1.49,0,0,1-1.4-.15C16.64,36.19,17,35.29,17,35.29Z"/><circle class="cls-5" cx="48.04" cy="38" r="5.7"/><path class="cls-7" d="M45.85,36.52a3.05,3.05,0,0,1,2-1.13,1.49,1.49,0,0,1-.57,1.29C46.6,37.15,45.85,36.52,45.85,36.52Z"/><path class="cls-7" d="M46,39.62a3,3,0,0,1-.47-2.22,1.5,1.5,0,0,1,1.05.94C46.78,39.11,46,39.62,46,39.62Z"/><path class="cls-7" d="M48.93,40.49a3,3,0,0,1-2.26-.25,1.51,1.51,0,0,1,1.22-.7C48.7,39.54,48.93,40.49,48.93,40.49Z"/><path class="cls-7" d="M48.78,35.47A3.06,3.06,0,0,1,50.46,37a1.48,1.48,0,0,1-1.4-.14C48.4,36.37,48.78,35.47,48.78,35.47Z"/><polygon class="cls-5" points="44.24 33.62 44.23 33.04 45.2 32.46 45.87 32.63 45.58 33.46 44.24 33.62"/><polygon class="cls-5" points="42.99 35.15 42.77 34.61 43.49 33.73 44.18 33.67 44.19 34.55 42.99 35.15"/><polygon class="cls-5" points="42.34 37.02 41.95 36.59 42.33 35.51 42.95 35.22 43.26 36.04 42.34 37.02"/><polygon class="cls-5" points="42.36 38.99 41.85 38.72 41.84 37.59 42.33 37.1 42.9 37.76 42.36 38.99"/><polygon class="cls-5" points="43.06 40.85 42.49 40.77 42.09 39.7 42.38 39.08 43.14 39.5 43.06 40.85"/><polygon class="cls-5" points="44.35 42.35 43.79 42.47 43.05 41.6 43.11 40.92 43.97 41.06 44.35 42.35"/><polygon class="cls-5" points="46.08 43.31 45.59 43.62 44.6 43.06 44.42 42.4 45.28 42.23 46.08 43.31"/><polygon class="cls-5" points="48.03 43.63 47.68 44.09 46.56 43.91 46.16 43.34 46.91 42.89 48.03 43.63"/><polygon class="cls-5" points="49.98 43.27 49.8 43.81 48.68 44.03 48.12 43.63 48.67 42.95 49.98 43.27"/><polygon class="cls-5" points="47.89 32.23 48.25 31.78 49.37 31.96 49.76 32.53 49.01 32.98 47.89 32.23"/><polygon class="cls-5" points="45.95 32.6 46.13 32.05 47.24 31.84 47.8 32.24 47.25 32.91 45.95 32.6"/><polygon class="cls-8" points="13.34 26.94 11.97 29.84 13.6 29.82 14.43 26.93 13.34 26.94"/><polygon class="cls-5" points="12.55 33.51 12.53 32.93 13.51 32.35 14.18 32.53 13.89 33.35 12.55 33.51"/><polygon class="cls-5" points="11.3 35.04 11.08 34.5 11.8 33.62 12.49 33.56 12.5 34.44 11.3 35.04"/><polygon class="cls-5" points="10.65 36.91 10.26 36.48 10.64 35.4 11.26 35.11 11.57 35.93 10.65 36.91"/><polygon class="cls-5" points="10.67 38.89 10.16 38.61 10.15 37.48 10.63 36.99 11.21 37.65 10.67 38.89"/><polygon class="cls-5" points="11.37 40.74 10.8 40.66 10.4 39.59 10.69 38.97 11.45 39.4 11.37 40.74"/><polygon class="cls-5" points="12.66 42.24 12.1 42.36 11.36 41.49 11.42 40.81 12.28 40.95 12.66 42.24"/><polygon class="cls-5" points="14.39 43.2 13.9 43.51 12.91 42.95 12.73 42.29 13.59 42.13 14.39 43.2"/><polygon class="cls-5" points="16.34 43.52 15.99 43.98 14.87 43.8 14.47 43.23 15.22 42.78 16.34 43.52"/><polygon class="cls-5" points="18.29 43.16 18.11 43.7 16.99 43.92 16.43 43.52 16.98 42.84 18.29 43.16"/><polygon class="cls-5" points="19.99 42.14 20.01 42.72 19.03 43.3 18.37 43.12 18.65 42.3 19.99 42.14"/><polygon class="cls-5" points="21.24 40.61 21.46 41.15 20.74 42.03 20.05 42.09 20.04 41.21 21.24 40.61"/><polygon class="cls-5" points="21.9 38.74 22.28 39.17 21.91 40.25 21.28 40.54 20.97 39.72 21.9 38.74"/><polygon class="cls-5" points="21.87 36.76 22.38 37.04 22.39 38.17 21.91 38.66 21.34 38 21.87 36.76"/><polygon class="cls-5" points="21.17 34.91 21.74 34.99 22.14 36.06 21.85 36.68 21.09 36.26 21.17 34.91"/><polygon class="cls-5" points="19.88 33.41 20.45 33.29 21.19 34.16 21.13 34.84 20.26 34.7 19.88 33.41"/><polygon class="cls-5" points="18.15 32.45 18.64 32.14 19.64 32.7 19.81 33.36 18.95 33.52 18.15 32.45"/><polygon class="cls-5" points="16.2 32.13 16.56 31.67 17.68 31.85 18.07 32.42 17.32 32.87 16.2 32.13"/><polygon class="cls-5" points="14.25 32.49 14.43 31.94 15.55 31.73 16.11 32.13 15.56 32.81 14.25 32.49"/><path class="cls-8" d="M32.4,32.69c.36-.28.74-.52,1.12-.77l1.23-.54,2.45-1.07-.14.14.9-2.56c.15-.43.29-.86.45-1.28s.44-.81.68-1.2c-.06.46-.15.91-.22,1.36s-.29.86-.44,1.28l-.89,2.57,0,.1-.1,0L35,31.84l-1.22.55C33.28,32.5,32.85,32.61,32.4,32.69Z"/></g><path class="cls-5" d="M24.5,1.5a23,23,0,1,1-23,23,23,23,0,0,1,23-23m0-1a24,24,0,1,0,24,24,24,24,0,0,0-24-24Z"/></g></svg>