<svg xmlns="http://www.w3.org/2000/svg" xmlns:xlink="http://www.w3.org/1999/xlink" viewBox="0 0 49 49"><defs><style>.cls-1{fill:none;}.cls-2{fill:#fff;}.cls-3{clip-path:url(#clip-path);}.cls-4,.cls-5{fill:#1e1d19;}.cls-4{stroke:#fff;stroke-miterlimit:10;stroke-width:0.75px;}</style><clipPath id="clip-path"><circle class="cls-1" cx="24.63" cy="24.45" r="23.8"/></clipPath></defs><g id="Pistol_range" data-name="Pistol range"><circle class="cls-2" cx="24.63" cy="24.45" r="23.8"/><g class="cls-3"><rect class="cls-4" x="5.19" y="-4.63" width="38.87" height="58.52" rx="19.44"/><rect class="cls-4" x="11.11" y="4.28" width="27.03" height="40.69" rx="13.51"/><rect class="cls-4" x="17.55" y="13.97" width="14.16" height="21.31" rx="7.08"/><path class="cls-2" d="M23.34,19.24l.44-.62-.85.23-.2-.11-.18-.61-.41.46H22a1.63,1.63,0,0,0-1,.32l-.35-.12.08.38a1.64,1.64,0,0,0-.39,1.05c0,.05,0,.1,0,.15l-.12.13.15.1a1.63,1.63,0,0,0,1.37,1.23l.08.31.28-.3a1.61,1.61,0,0,0,1.06-.52l.35.28.19-1.38L23.65,20A1.6,1.6,0,0,0,23.34,19.24Z"/><path class="cls-2" d="M24.75,21.93l.6.45-.21-.86a1.32,1.32,0,0,0,.12-.2l.61-.17-.46-.41a.44.44,0,0,0,0-.1,1.6,1.6,0,0,0-.31-1l.13-.36-.38.08A1.58,1.58,0,0,0,23.82,19h-.15l-.13-.13-.09.16a1.62,1.62,0,0,0-1.26,1.34l-.3.08.29.28a1.62,1.62,0,0,0,.49,1.07l-.28.34,1.38.22.21-.13A1.65,1.65,0,0,0,24.75,21.93Z"/><path class="cls-2" d="M23.75,25.22l.45-.61-.86.22-.2-.11L23,24.11l-.41.46h-.1a1.61,1.61,0,0,0-1,.33l-.36-.13.08.38a1.64,1.64,0,0,0-.39,1.05.68.68,0,0,0,0,.15l-.13.14.16.09a1.61,1.61,0,0,0,1.36,1.23l.08.31.28-.3a1.6,1.6,0,0,0,1.06-.51l.35.27.2-1.38L24.06,26A1.5,1.5,0,0,0,23.75,25.22Z"/><path class="cls-2" d="M25.37,24.93l-.7.3.85.25a1.06,1.06,0,0,0,.12.2l-.16.61.59-.18.07.06a1.71,1.71,0,0,0,1,.22l.24.29.13-.37a1.62,1.62,0,0,0,.87-.7.61.61,0,0,0,.07-.14l.18,0-.09-.16A1.66,1.66,0,0,0,28,23.5l.08-.3-.39.11a1.64,1.64,0,0,0-1.17-.1l-.16-.42-.88,1.08v.25A1.53,1.53,0,0,0,25.37,24.93Z"/></g><path class="cls-5" d="M24.5,1.5a23,23,0,1,1-23,23,23,23,0,0,1,23-23m0-1a24,24,0,1,0,24,24,24,24,0,0,0-24-24Z"/></g></svg>