<svg xmlns="http://www.w3.org/2000/svg" xmlns:xlink="http://www.w3.org/1999/xlink" viewBox="0 0 49 49"><defs><style>.cls-1,.cls-5{fill:none;}.cls-2{clip-path:url(#clip-path);}.cls-3{fill:#1e1d19;}.cls-4{fill:#fff;}.cls-5{stroke:#1e1d19;stroke-linecap:round;stroke-miterlimit:10;}</style><clipPath id="clip-path"><circle class="cls-1" cx="24.5" cy="24.5" r="24"/></clipPath></defs><g id="Pre-owned_Guns" data-name="Pre-owned Guns"><g class="cls-2"><circle class="cls-1" cx="24.82" cy="24.55" r="23.8"/><g id="IwE5SJ.tif"><path class="cls-3" d="M18,35a.56.56,0,0,1-.29.54l-.32.17a12.57,12.57,0,0,1-1.33.51l-1.13.38-1.42.47c-.56.19-1.12.4-1.68.6l-.52.17L10,38.32a1.46,1.46,0,0,1-.19.07.44.44,0,0,1-.58-.29,3.67,3.67,0,0,1-.14-.52l-.34.12s0,.06,0,.1c0,.25-.1.35-.34.32S7.81,38,7.53,38a.56.56,0,0,1-.42-.38,10.88,10.88,0,0,1-.55-1.67c0-.1-.06-.19-.08-.29s0-.16-.05-.24a1,1,0,0,1-.06-.16c0-.21,0-.43-.06-.64a3.54,3.54,0,0,1,0-.86c0-.18,0-.35,0-.53s0-.53.07-.79.07-.41.11-.61.1-.49.16-.74.1-.4.14-.61.1-.51.14-.78,0-.41.06-.61,0-.46,0-.68,0-.31,0-.46a4,4,0,0,0-.06-.77c0-.19-.06-.38-.1-.57A4.42,4.42,0,0,0,6.67,26a3.76,3.76,0,0,0-.58-1.08A3.19,3.19,0,0,0,5,24a3.33,3.33,0,0,0-.82-.29,3.55,3.55,0,0,0-1.3,0,3.42,3.42,0,0,0-1.18.46.91.91,0,0,1-.22.11.32.32,0,0,1-.3,0A.43.43,0,0,1,1,23.81a3,3,0,0,1,.18-.93l.15-.41a.35.35,0,0,1-.05-.08A1.46,1.46,0,0,1,1,21.72S1,21.58.92,21.57a.21.21,0,0,1-.16-.15c-.42-1-.85-2-1.28-3a1.4,1.4,0,0,1-.09-.29.5.5,0,0,1,.35-.66L.8,17.05C1,17,1,17,1,16.73s0-.42,0-.64c0-.06,0-.17,0-.19a5.52,5.52,0,0,1,.54-.28h.06a1,1,0,0,1,.56.3c.1.13.22.25.34.38l.2-.09L4,15.64l4.41-2L13,11.61l.91-.4c.09,0,.19-.08.26,0l1-.43c.73-.3,1.42-.67,2.16-.94l1.13-.4c.19-.07.38-.12.57-.2s.57-.24.85-.36A.14.14,0,0,0,20,8.68l0-.11.16-.08,2.51-1.13,5.05-2.24.91-.4.19-.09c0-.1,0-.19,0-.28s0-.27,0-.41,0-.18.13-.24l.4-.17a.22.22,0,0,1,.22,0l.39.19.48.22.41-.18a.42.42,0,0,1,.5.15c.08.1.14.22.21.32a1.62,1.62,0,0,0,.1.18l.09,0a.28.28,0,0,1,.34.09.69.69,0,0,1,.11.13c.19.37.39.74.57,1.12a4.45,4.45,0,0,1,.19.51c0,.14.09.29.13.44s0,.29-.18.43l0,.05s0,.1.06.16l.19.45a.54.54,0,0,0,.21.26.47.47,0,0,1,.18.19,9.45,9.45,0,0,1,.69,1.48c.1.27.08.3-.1.52,0,.21.07.43.11.65a.62.62,0,0,1-.33.68l-1.2.65-1.39.73-.84.41L29,14l-1.39.62a2.38,2.38,0,0,0-.41.23,2.09,2.09,0,0,0-.8,1.09,2.14,2.14,0,0,0,0,1.61c.18.41.35.82.54,1.22a5.58,5.58,0,0,0,.35.69,6.42,6.42,0,0,0,.84,1.17.43.43,0,0,1-.14.7L26.67,22l-1.47.68L22.73,23.8l-1.38.64a4.57,4.57,0,0,1-2.21.47,1.55,1.55,0,0,0-1,.25,1.58,1.58,0,0,0-.77,1.26,4.85,4.85,0,0,0,0,.66,2,2,0,0,0,0,.65.19.19,0,0,1,0,.08.42.42,0,0,0,0,.33.47.47,0,0,1,0,.17,1,1,0,0,0,0,.17.66.66,0,0,1,0,.37.75.75,0,0,0,0,.21.36.36,0,0,1,0,.11c0,.22,0,.43,0,.65a1.13,1.13,0,0,1,0,.41s0,.09,0,.13a1.37,1.37,0,0,1,0,.19c0,.11,0,.23,0,.34v.17c0,.08,0,.16,0,.24s0,.14,0,.21v.2c0,.21,0,.42.05.62v.06a2.72,2.72,0,0,0,0,.28s0,.08,0,.13a4,4,0,0,0,0,.69.57.57,0,0,1-.06.44l.08.07a.58.58,0,0,1,.22.42c0,.11,0,.22.05.35A2.06,2.06,0,0,0,18,35ZM22.51,22.6a5,5,0,0,1-2.22-.37,17.75,17.75,0,0,1-2.7-.93l-.36-.11a4,4,0,0,0,0,.48A2.48,2.48,0,0,0,17.87,23a2.58,2.58,0,0,0,1.33.78,2.67,2.67,0,0,0,1.65-.16c.27-.12.55-.23.82-.36l1.95-.88c.44-.2.89-.4,1.32-.62A2.18,2.18,0,0,0,26.08,19c-.11-.28-.24-.55-.35-.82a2.33,2.33,0,0,0-.43-.67,2.05,2.05,0,0,0-1.78-.69,3.67,3.67,0,0,0-1,.26,12.82,12.82,0,0,0-1.43.73c-.21.12-.43.23-.65.34l-.68.38c-.11.07-.12.13-.09.26a5.23,5.23,0,0,0,.82,1.57.83.83,0,0,0,.39.3l1.82.77a.41.41,0,0,1,.27.37C23,21.94,22.88,22.57,22.51,22.6Z"/></g><path class="cls-3" d="M28.23,35.72,30.34,24a1.08,1.08,0,0,1,.51-.75l3.29-2a1.09,1.09,0,0,1,.79-.15l3.53.63a1.17,1.17,0,0,1,.71.45l2.15,3a1.12,1.12,0,0,1,.2.85L39.4,37.74a1.12,1.12,0,0,1-1.3.9l-9-1.62A1.12,1.12,0,0,1,28.23,35.72Z"/><circle class="cls-4" cx="36.03" cy="23.73" r="0.97"/><path class="cls-5" d="M36,22.77l.57-1.88s-.28-8.65-4.07-5.35c-2.64,2.29-6.75,2.6-6.75,2.6"/></g><path class="cls-3" d="M24.5,1.5a23,23,0,1,1-23,23,23,23,0,0,1,23-23m0-1a24,24,0,1,0,24,24,24,24,0,0,0-24-24Z"/></g></svg>