<svg xmlns="http://www.w3.org/2000/svg" xmlns:xlink="http://www.w3.org/1999/xlink" viewBox="0 0 49 49"><defs><style>.cls-1{fill:none;}.cls-2{clip-path:url(#clip-path);}.cls-3,.cls-5{fill:#fff;}.cls-3,.cls-4,.cls-5{stroke:#fff;stroke-miterlimit:10;}.cls-3{stroke-width:2px;}.cls-4,.cls-6{fill:#1e1d19;}</style><clipPath id="clip-path"><circle class="cls-1" cx="24.5" cy="24.5" r="23.8"/></clipPath></defs><g id="Rifle_Range" data-name="Rifle Range"><circle class="cls-1" cx="24.5" cy="24.5" r="23.8"/><g class="cls-2"><circle class="cls-3" cx="24.5" cy="24.5" r="15.71"/><circle class="cls-4" cx="24.5" cy="24.5" r="8.88"/><circle class="cls-5" cx="24.5" cy="24.5" r="3.27"/><path class="cls-6" d="M-5.44,24.5c1.25-.21,2.5-.34,3.74-.5H20.76c1.25.17,2.49.3,3.74.5-1.25.2-2.49.33-3.74.5H-1.7C-2.94,24.84-4.19,24.71-5.44,24.5Z"/><path class="cls-6" d="M24.5,24.5c1.22-.21,2.44-.34,3.66-.5h22c1.22.17,2.44.3,3.66.5-1.22.2-2.44.33-3.66.5h-22C26.94,24.84,25.72,24.71,24.5,24.5Z"/><path class="cls-6" d="M24.5,24.5c.21,1.25.34,2.49.5,3.74V50.7c-.17,1.24-.3,2.49-.5,3.74-.2-1.25-.33-2.5-.5-3.74V28.24C24.16,27,24.29,25.75,24.5,24.5Z"/><path class="cls-6" d="M24.5-4.62c.21,1.21.34,2.42.5,3.64V20.86c-.17,1.21-.3,2.43-.5,3.64-.2-1.21-.33-2.43-.5-3.64V-1C24.16-2.2,24.29-3.41,24.5-4.62Z"/><path class="cls-6" d="M22.25,34.31a4.31,4.31,0,0,1,.56-.51h3.38a6.13,6.13,0,0,1,.56.5,6.13,6.13,0,0,1-.56.5H23.37c-.18,0-.37,0-.56,0A3.6,3.6,0,0,1,22.25,34.31Z"/><path class="cls-6" d="M20.52,36.87a7.18,7.18,0,0,1,1-.5h6a9.32,9.32,0,0,1,1,.5,9.32,9.32,0,0,1-1,.5h-6A7.25,7.25,0,0,1,20.52,36.87Z"/></g><path class="cls-6" d="M24.5,1.5a23,23,0,1,1-23,23,23,23,0,0,1,23-23m0-1a24,24,0,1,0,24,24,24,24,0,0,0-24-24Z"/></g></svg>