<svg xmlns="http://www.w3.org/2000/svg" viewBox="0 0 49 49"><defs><style>.cls-1{fill:none;}.cls-2{fill:#1e1d19;}</style></defs><g id="RV_parking" data-name="RV parking"><circle class="cls-1" cx="24.5" cy="24.5" r="23.8"/><g id="Ox7g0A.tif"><path class="cls-2" d="M7.9,14.64h30c2,.34,2.82,1.79,3.25,3.62.34,1.41.79,2.8,1.23,4.18a5.54,5.54,0,0,1-.7,5.09,33.79,33.79,0,0,1-3,3.52,1.62,1.62,0,0,1-1.08.44c-2.57,0-5.14,0-7.71,0a.83.83,0,0,1-.92-.6A2.94,2.94,0,0,0,26,29a3.06,3.06,0,0,0-2.9,1.94,3,3,0,0,1-.46.57,3.48,3.48,0,0,1-.44-.59,3.15,3.15,0,0,0-5.81,0c-.09.18-.15.37-.24.58H15.4c-3.09,0-6.18,0-9.27,0-.71,0-.92-.17-.91-.9,0-4.27,0-8.54.07-12.82a5.88,5.88,0,0,1,.12-1.1,2.34,2.34,0,0,1,1.85-1.89C7.48,14.77,7.69,14.7,7.9,14.64Zm7.2,15.73c0-.17.07-.24.07-.31,0-3.36,0-6.71,0-10.07a2.61,2.61,0,0,0-2.6-2.53q-1.34-.06-2.67,0A2.5,2.5,0,0,0,7.33,19.6c-.09,3.57,0,7.15,0,10.71,1.17.23,1.2.2,1.2-.88,0-3.06,0-6.13,0-9.19a1.41,1.41,0,0,1,1.56-1.56H12c1.51,0,1.95.43,1.95,1.92v9.77Zm7.61-6.79h0c.64,0,1.28,0,1.93,0a2.11,2.11,0,0,0,2.21-2.09,15.38,15.38,0,0,0,0-1.92,2.12,2.12,0,0,0-2.08-2.1q-2-.07-4,0a2.11,2.11,0,0,0-2.09,2.22c0,.61,0,1.23,0,1.85a2.08,2.08,0,0,0,2,2C21.38,23.6,22.05,23.58,22.71,23.58Zm10.42,0c.67,0,1.33,0,2,0a2.12,2.12,0,0,0,2.15-2.16c0-.6,0-1.19,0-1.78a2.13,2.13,0,0,0-2.07-2.18c-1.35-.06-2.71-.06-4.07,0a2.11,2.11,0,0,0-2,2.06c0,.66,0,1.33,0,2a2.13,2.13,0,0,0,2.11,2.06C31.85,23.61,32.49,23.59,33.13,23.59Z"/><path class="cls-2" d="M21.38,32.16A2,2,0,0,0,19.31,30a2.1,2.1,0,1,0,0,4.2A2,2,0,0,0,21.38,32.16ZM26.05,30a2.05,2.05,0,0,0-2.15,2,2.1,2.1,0,1,0,2.15-2Z"/><path class="cls-2" d="M43,34.36V31.55H40c.51-.77,1-1.29,1.88-1.15.7.11,1.43.13,1.16-1h1l.09.81,1.77.59v.3l-1.78.63v2.63Z"/><path class="cls-2" d="M21.38,32.16a2,2,0,0,1-2.12,2.07,2.1,2.1,0,1,1,0-4.2A2,2,0,0,1,21.38,32.16Z"/><path class="cls-2" d="M26.05,30a2.1,2.1,0,1,1-2.15,2A2,2,0,0,1,26.05,30Z"/></g><path class="cls-2" d="M24.5,1.5a23,23,0,1,1-23,23,23,23,0,0,1,23-23m0-1a24,24,0,1,0,24,24,24,24,0,0,0-24-24Z"/></g></svg>