<svg xmlns="http://www.w3.org/2000/svg" xmlns:xlink="http://www.w3.org/1999/xlink" viewBox="0 0 49 49"><defs><style>.cls-1{fill:none;}.cls-2{clip-path:url(#clip-path);}.cls-3{clip-path:url(#clip-path-2);}.cls-4{fill:#1e1d19;}.cls-5{fill:#fff;}.cls-6{clip-path:url(#clip-path-3);}</style><clipPath id="clip-path"><circle class="cls-1" cx="100.5" cy="-51.5" r="24"/></clipPath><clipPath id="clip-path-2"><circle class="cls-1" cx="24.5" cy="24.5" r="24"/></clipPath><clipPath id="clip-path-3"><circle class="cls-1" cx="100.5" cy="24.5" r="24"/></clipPath></defs><g id="Shooting_Gallery" data-name="Shooting Gallery"><g class="cls-3"><g id="xF6soL.tif"><path class="cls-4" d="M53.8,20.67a2.66,2.66,0,0,0-1.52-.35c-.21,0-.45.2-.67.33-2,1.19-4.11,1.77-6.49.82a16.6,16.6,0,0,0-8.67-.83,11.65,11.65,0,0,1-1.33,0,11.56,11.56,0,0,1,.73-1.08,8.61,8.61,0,0,0,1.94-4.94,5.24,5.24,0,0,0-4.08-5.88C32,8.31,30.3,7.87,28.57,7.51a1.13,1.13,0,0,0-1,.43,6.46,6.46,0,0,0-.29,1.61,2.15,2.15,0,0,1-.25.95,4.7,4.7,0,0,0-1.39,3.31,2.28,2.28,0,0,1-2.35,2.49c-.54,0-1.06.06-1,.77s.54.77,1.11.84c1.09.14,2.18.33,3.26.55a.8.8,0,0,1,.64,1.21,22.54,22.54,0,0,1-1,2.24,19.69,19.69,0,0,0-2.4,6.64,6.66,6.66,0,0,0,2.22,6.13,14.71,14.71,0,0,0,8.65,3.45c.32,0,.9.13.92.27a7.18,7.18,0,0,1,.07,2.31c0,.17-.48.33-.89.4a.28.28,0,0,1,0,.13.34.34,0,0,1,0,.1H39.3a.42.42,0,0,1,0-.33c-.4-.22-.38-.74-.34-2a1,1,0,0,1,1-1.13c1.45-.28,2.9-.62,4.33-1a9.07,9.07,0,0,0,6.66-6.84,31.69,31.69,0,0,1,.85-3.39c.6-1.56,1.42-3,2.06-4.57C54,21.67,54.05,20.91,53.8,20.67Z"/><path class="cls-4" d="M53.54,20.61c-.32-.32-1-.32-1.52-.36-.21,0-.45.2-.67.33-2,1.2-4.11,1.78-6.48.82a16.85,16.85,0,0,0-8.68-.83,11.31,11.31,0,0,1-1.33,0c.32-.47.49-.81.73-1.09a8.63,8.63,0,0,0,1.95-4.94,5.24,5.24,0,0,0-4.08-5.87c-1.71-.43-3.42-.87-5.15-1.23a1.12,1.12,0,0,0-1,.42A6.54,6.54,0,0,0,27,9.49a2.19,2.19,0,0,1-.25.95,4.75,4.75,0,0,0-1.39,3.31,2.27,2.27,0,0,1-2.35,2.48c-.54,0-1.05.07-1.05.78s.55.76,1.11.83c1.1.14,2.18.34,3.26.55A.81.81,0,0,1,27,19.61a21.34,21.34,0,0,1-1,2.24,19.46,19.46,0,0,0-2.39,6.64,6.64,6.64,0,0,0,2.21,6.13,14.7,14.7,0,0,0,8.65,3.44c.33,0,.9.14.92.28a7.18,7.18,0,0,1,.07,2.31c0,.16-.47.32-.88.39a.69.69,0,0,1,0,.13.37.37,0,0,1,0,.11H39a.44.44,0,0,1,0-.34c-.4-.22-.38-.73-.34-2a1,1,0,0,1,1-1.12c1.46-.29,2.9-.62,4.33-1A9.07,9.07,0,0,0,50.65,30a31.69,31.69,0,0,1,.85-3.39c.6-1.55,1.42-3,2.06-4.56C53.73,21.61,53.79,20.85,53.54,20.61Z"/></g><g id="xF6soL.tif-2" data-name="xF6soL.tif"><path class="cls-4" d="M17.6,20.67a2.66,2.66,0,0,0-1.52-.35c-.21,0-.45.2-.67.33-2,1.19-4.11,1.77-6.49.82a16.6,16.6,0,0,0-8.67-.83,11.65,11.65,0,0,1-1.33,0,11.56,11.56,0,0,1,.73-1.08,8.61,8.61,0,0,0,1.94-4.94A5.24,5.24,0,0,0-2.49,8.74c-1.71-.43-3.42-.87-5.14-1.23a1.13,1.13,0,0,0-1,.43A6.46,6.46,0,0,0-8.9,9.55a2.15,2.15,0,0,1-.25.95,4.7,4.7,0,0,0-1.39,3.31,2.28,2.28,0,0,1-2.35,2.49c-.54,0-1.06.06-1,.77s.54.77,1.11.84c1.09.14,2.18.33,3.26.55a.8.8,0,0,1,.64,1.21,22.54,22.54,0,0,1-1,2.24,19.69,19.69,0,0,0-2.4,6.64,6.64,6.64,0,0,0,2.22,6.13,14.71,14.71,0,0,0,8.65,3.45c.32,0,.89.13.92.27a7.18,7.18,0,0,1,.07,2.31c0,.17-.48.33-.89.4a.28.28,0,0,1,0,.13.34.34,0,0,1,0,.1H3.1a.42.42,0,0,1,0-.33c-.4-.22-.38-.74-.34-2a1,1,0,0,1,1-1.13c1.45-.28,2.9-.62,4.33-1a9.07,9.07,0,0,0,6.66-6.84,31.69,31.69,0,0,1,.85-3.39c.6-1.56,1.42-3,2.06-4.57C17.79,21.67,17.85,20.91,17.6,20.67Z"/><path class="cls-4" d="M17.6,20.67a2.66,2.66,0,0,0-1.52-.35c-.21,0-.45.2-.67.33-2,1.19-4.11,1.77-6.49.82a16.6,16.6,0,0,0-8.67-.83,11.65,11.65,0,0,1-1.33,0,11.56,11.56,0,0,1,.73-1.08,8.61,8.61,0,0,0,1.94-4.94A5.24,5.24,0,0,0-2.49,8.74c-1.71-.43-3.42-.87-5.14-1.23a1.13,1.13,0,0,0-1,.43A6.46,6.46,0,0,0-8.9,9.55a2.15,2.15,0,0,1-.25.95,4.7,4.7,0,0,0-1.39,3.31,2.28,2.28,0,0,1-2.35,2.49c-.54,0-1.06.06-1,.77s.54.77,1.11.84c1.09.14,2.18.33,3.26.55a.8.8,0,0,1,.64,1.21,22.54,22.54,0,0,1-1,2.24,19.69,19.69,0,0,0-2.4,6.64,6.64,6.64,0,0,0,2.22,6.13,14.71,14.71,0,0,0,8.65,3.45c.32,0,.89.13.92.27a7.18,7.18,0,0,1,.07,2.31c0,.17-.48.33-.89.4a.28.28,0,0,1,0,.13.34.34,0,0,1,0,.1H3.1a.42.42,0,0,1,0-.33c-.4-.22-.38-.74-.34-2a1,1,0,0,1,1-1.13c1.45-.28,2.9-.62,4.33-1a9.07,9.07,0,0,0,6.66-6.84,31.69,31.69,0,0,1,.85-3.39c.6-1.56,1.42-3,2.06-4.57C17.79,21.67,17.85,20.91,17.6,20.67Z"/></g><rect class="cls-4" x="-3.56" y="40.74" width="46.64" height="9.67"/><circle class="cls-5" cx="37.92" cy="28.74" r="6.5"/><circle class="cls-4" cx="37.92" cy="28.74" r="4.13"/><circle class="cls-5" cx="37.92" cy="28.74" r="1.83"/><circle class="cls-5" cx="0.26" cy="28.74" r="6.5"/><circle class="cls-4" cx="0.26" cy="28.74" r="4.13"/><circle class="cls-5" cx="0.26" cy="28.74" r="1.83"/></g><path class="cls-4" d="M24.5,1.5a23,23,0,1,1-23,23,23,23,0,0,1,23-23m0-1a24,24,0,1,0,24,24,24,24,0,0,0-24-24Z"/></g><g id="Offroad_Service" data-name="Offroad Service"><g class="cls-6"><g id="cKswzw.tif"><path class="cls-4" d="M54.48,42.16a19,19,0,0,0,1.35-1.62,8.94,8.94,0,0,0,.94-1.75,13.22,13.22,0,0,1,5.75-6.14c2.6-1.55,5.24-3,7.87-4.5,2.93-1.66,5.87-3.3,8.8-5,1.81-1,3.6-2.11,5.42-3.14a10.22,10.22,0,0,1,7.31-1.34c3.75.78,6.5-1.6,8-4a2.44,2.44,0,0,0,.12-.84,3.14,3.14,0,0,0-.81,0c-1.14.33-2.27.66-3.39,1a2.08,2.08,0,0,1-2.45-.68,4.43,4.43,0,0,1-1-3.72,2.18,2.18,0,0,1,1.82-2c1.2-.29,2.4-.55,3.6-.85a2.92,2.92,0,0,0,.7-.44c-.19-.24-.32-.6-.57-.71a12.43,12.43,0,0,0-5.7-1.3A3.51,3.51,0,0,0,89.25,7a11.86,11.86,0,0,0-1,1.74A13.67,13.67,0,0,1,82,15.4Q70.93,21.74,59.79,28a9.2,9.2,0,0,1-6.63,1.11c-3.94-.85-6.7,1.63-8.1,3.87a2.26,2.26,0,0,0-.13,1,3.28,3.28,0,0,0,.83,0c1.16-.33,2.31-.68,3.45-1.07a2,2,0,0,1,2,.45A4.43,4.43,0,0,1,52.38,38a2.19,2.19,0,0,1-1.7,1.27c-1.2.3-2.4.55-3.6.85a2.38,2.38,0,0,0-.65.4c.14.21.23.54.43.63,2.1,1,4.25,1.74,6.62,1.27a3.17,3.17,0,0,0,.5-.15l.4-.19Z"/></g></g></g></svg>